<?xml version="1.0" standalone="no"?>
<!DOCTYPE svg PUBLIC "-//W3C//DTD SVG 20010904//EN"
 "http://www.w3.org/TR/2001/REC-SVG-20010904/DTD/svg10.dtd">
<svg version="1.0" xmlns="http://www.w3.org/2000/svg"
 width="500.000000pt" height="500.000000pt" viewBox="0 0 500.000000 500.000000"
 preserveAspectRatio="xMidYMid meet">

<g transform="translate(0.000000,500.000000) scale(0.100000,-0.100000)"
fill="#000000" stroke="none">
<path d="M0 2500 l0 -2500 2500 0 2500 0 0 2500 0 2500 -2500 0 -2500 0 0
-2500z m2728 1930 c380 -49 789 -234 1073 -484 92 -80 106 -100 88 -122 -22
-26 -47 -14 -150 72 -359 301 -797 463 -1257 464 -504 1 -953 -166 -1324 -492
-50 -44 -73 -58 -87 -53 -44 14 -35 38 46 115 266 256 636 430 1052 495 101
15 452 19 559 5z m-1291 -675 c2 -14 -18 -36 -68 -75 -78 -60 -229 -223 -289
-310 -114 -167 -193 -337 -238 -510 -40 -154 -52 -246 -52 -403 0 -169 12
-267 51 -429 25 -105 29 -132 18 -139 -19 -12 -25 -4 -38 48 -7 27 -20 62 -30
78 -30 51 -46 211 -46 450 0 174 4 237 18 300 79 358 251 664 499 892 109 101
139 124 156 121 10 -2 18 -12 19 -23z m2200 -43 c319 -281 504 -616 569 -1030
22 -141 15 -393 -15 -542 -24 -121 -77 -249 -103 -250 -16 0 -15 4 2 55 11 31
32 113 47 183 24 114 27 147 27 322 1 175 -2 208 -27 323 -77 359 -272 680
-554 910 -58 46 -74 73 -56 90 15 16 37 3 110 -61z m-2464 26 c9 -13 -5 -33
-81 -112 -105 -110 -231 -293 -299 -436 -84 -176 -130 -339 -160 -564 -9 -66
-30 -90 -61 -70 -21 14 -20 72 4 213 48 287 214 627 423 866 102 117 149 144
174 103z m2761 -80 c223 -224 405 -583 461 -906 17 -103 21 -174 11 -190 -9
-15 -53 -16 -61 -1 -4 6 -14 60 -21 120 -28 214 -118 461 -238 658 -76 126
-135 201 -228 293 -89 89 -100 124 -39 127 7 1 59 -45 115 -101z m-1395 -490
c211 -200 311 -304 311 -324 0 -20 -89 -113 -238 -250 l-54 -48 34 -30 c112
-98 248 -239 248 -256 0 -24 -34 -60 -55 -60 -14 0 -84 61 -274 238 -111 103
-111 107 4 222 48 49 112 108 141 132 29 23 53 46 54 49 0 3 -63 66 -141 139
l-140 133 -133 -132 c-138 -137 -164 -151 -200 -115 -36 35 -22 57 147 218
131 126 167 156 191 156 21 0 46 -17 105 -72z m-105 -284 c30 -30 19 -58 -46
-119 -35 -31 -108 -101 -164 -156 -105 -103 -130 -115 -166 -82 -37 33 -24 53
144 215 170 164 195 179 232 142z m-829 -714 c19 -16 19 -64 0 -84 -20 -19
-19 -28 6 -60 20 -25 20 -26 2 -26 -11 0 -29 14 -41 30 -16 22 -31 30 -52 30
-27 0 -30 -3 -30 -30 0 -38 -16 -39 -23 -2 -8 40 4 145 17 155 16 11 103 2
121 -13z m474 6 c72 -38 65 -139 -13 -171 -42 -18 -81 -8 -111 27 -36 42 -33
82 9 124 37 37 70 43 115 20z m436 -53 l64 -68 1 63 c0 48 3 62 15 62 12 0 15
-17 15 -90 0 -64 -4 -90 -12 -90 -7 0 -38 28 -70 63 l-57 62 -1 -62 c0 -49 -3
-63 -15 -63 -12 0 -15 17 -15 95 0 52 3 95 6 95 3 0 34 -30 69 -67z m573 -31
c2 -77 0 -92 -13 -92 -12 0 -15 16 -15 96 0 72 3 95 13 92 8 -3 13 -34 15 -96z
m442 26 c0 48 3 62 15 62 12 0 15 -17 15 -95 0 -91 -1 -95 -19 -86 -10 6 -44
38 -75 73 l-56 61 0 -66 c0 -53 -3 -67 -15 -67 -12 0 -15 16 -15 88 0 49 3 92
7 96 4 3 38 -24 75 -61 l68 -67 0 62z m-580 -28 c0 -73 -3 -90 -15 -90 -12 0
-15 17 -15 90 0 73 3 90 15 90 12 0 15 -17 15 -90z m-2240 -29 c0 -22 -29 -34
-124 -50 -79 -14 -96 -14 -96 3 0 20 8 24 92 46 97 25 128 26 128 1z m3639 5
c31 -8 68 -17 84 -20 36 -8 39 -46 3 -46 -48 0 -206 42 -206 54 0 30 32 33
119 12z m-3164 -114 c125 -65 472 -477 578 -687 70 -140 75 -269 15 -349 -13
-16 -14 -9 -10 68 5 94 -5 147 -44 234 -59 130 -297 443 -447 589 -102 100
-173 137 -259 137 -56 1 -57 1 -30 15 66 35 118 33 197 -7z m2773 3 c55 -25
72 -42 25 -24 -50 19 -129 12 -189 -15 -89 -41 -253 -211 -426 -441 -165 -220
-199 -292 -206 -427 -2 -49 1 -102 7 -119 10 -28 9 -30 -5 -18 -80 66 -68 247
26 403 91 150 341 460 447 554 128 114 213 137 321 87z m-3028 -158 c58 -28
152 -119 303 -295 356 -415 416 -508 417 -643 0 -118 -65 -208 -198 -272 -48
-22 -82 -31 -135 -33 l-72 -4 69 16 c148 33 251 114 283 223 38 131 -21 230
-402 671 -248 287 -314 338 -424 327 l-56 -5 40 19 c48 23 122 21 175 -4z
m3253 5 l39 -17 -69 0 c-85 -1 -115 -16 -207 -104 -76 -73 -385 -428 -489
-562 -114 -148 -143 -234 -111 -336 34 -107 160 -200 302 -223 l57 -9 -76 3
c-133 5 -260 82 -313 189 -29 57 -35 157 -14 218 29 84 120 210 333 459 320
374 417 441 548 382z m-3058 -436 c314 -315 405 -439 405 -548 0 -89 -53 -166
-144 -209 -70 -33 -82 -35 -90 -14 -5 14 27 35 53 35 23 0 95 66 112 103 57
126 10 198 -378 585 -145 144 -263 269 -263 276 0 22 22 25 55 9 17 -9 129
-115 250 -237z m2985 226 c0 -10 -112 -130 -253 -270 -342 -342 -397 -412
-397 -505 0 -26 6 -62 14 -80 18 -45 79 -95 132 -109 31 -9 44 -17 42 -28 -8
-43 -123 2 -182 72 -81 94 -71 206 29 338 103 136 458 510 549 578 36 27 66
29 66 4z m-3269 -147 c41 -77 101 -186 132 -241 74 -132 80 -149 61 -165 -24
-20 -46 10 -165 230 -163 298 -160 293 -147 308 23 28 45 4 119 -132z m3367
132 c13 -15 19 -4 -145 -299 -129 -234 -143 -254 -166 -245 -23 9 -21 36 6 77
13 19 75 127 137 240 137 248 144 257 168 227z m196 -311 c-10 -31 -183 -348
-200 -368 -19 -21 -44 -13 -44 14 0 25 185 368 207 385 23 17 46 -2 37 -31z
m-3728 -161 c57 -104 104 -193 104 -197 0 -4 -9 -12 -19 -18 -26 -14 -45 12
-155 218 -88 162 -97 197 -55 190 17 -2 46 -48 125 -193z"/>
<path d="M1490 2126 c0 -35 1 -36 38 -36 48 0 65 12 60 41 -3 21 -9 24 -50 27
l-48 3 0 -35z"/>
<path d="M1980 2140 c-59 -59 27 -152 93 -100 34 27 36 68 4 98 -29 27 -71 28
-97 2z"/>
</g>
</svg>
