<svg xmlns="http://www.w3.org/2000/svg" width="500" height="500" viewBox="0 0 500 500" version="1.1"><path d="M 245.500 57.067 C 263.195 57.641, 278.482 58.947, 284.500 60.399 C 285.600 60.664, 289.875 61.625, 294 62.533 C 303.763 64.684, 320.569 70.340, 329.891 74.612 C 338.634 78.620, 340.559 78.983, 333.500 75.293 C 318.881 67.652, 289.622 59.026, 271.500 57.015 C 266.550 56.466, 254.175 56.107, 244 56.218 L 225.500 56.419 245.500 57.067 M 212.180 58.224 C 208.704 58.757, 206.061 59.394, 206.307 59.640 C 206.827 60.160, 224.229 58.104, 224.889 57.444 C 225.575 56.758, 219.181 57.150, 212.180 58.224 M 191.500 62.910 C 186 64.398, 178.125 66.900, 174 68.470 C 165.347 71.764, 146.974 80.602, 145.500 82.180 C 144.355 83.405, 144.390 83.393, 151.454 80.062 C 154.751 78.507, 156.535 78.106, 156.788 78.863 C 156.996 79.488, 157.778 80, 158.524 80 C 161.108 80, 160.926 81.712, 158.219 82.870 C 155.821 83.895, 155.710 83.867, 157.282 82.633 C 158.949 81.323, 158.899 81.192, 156.504 80.590 C 154.691 80.135, 152.568 80.739, 149.222 82.661 C 139.607 88.184, 128.380 95.831, 124.339 99.609 C 117.775 105.746, 113.634 109.353, 111.872 110.469 C 106.152 114.091, 105.721 114.012, 109.500 110.034 C 114.972 104.275, 127.056 94.585, 135.500 89.188 C 142.999 84.393, 146.076 81.952, 142 84.029 C 134.111 88.051, 116.971 101.218, 109.297 109.154 C 104.979 113.618, 104.314 116.534, 107.199 118.354 C 108.372 119.094, 110.708 117.580, 117.341 111.781 C 128.228 102.263, 140.680 93.720, 154.048 86.599 C 159.797 83.536, 163.911 81.024, 163.191 81.015 C 162.471 81.007, 162.160 80.550, 162.500 80 C 162.840 79.450, 164.104 79.007, 165.309 79.015 C 167.090 79.028, 167.219 79.212, 166 80 C 163.419 81.668, 165.537 81.095, 171.187 78.596 C 178.981 75.149, 195.036 70.216, 205.500 68.053 C 210.450 67.029, 213.600 66.156, 212.500 66.112 C 211.400 66.068, 206.228 66.933, 201.006 68.035 C 194.959 69.311, 191.389 69.668, 191.173 69.019 C 190.778 67.834, 187.681 67.653, 186.583 68.750 C 186.171 69.162, 183.643 69.500, 180.967 69.500 C 176.123 69.500, 175.533 68.185, 180.102 67.575 C 181.421 67.400, 184.173 66.523, 186.218 65.628 C 188.263 64.733, 190.513 63.998, 191.218 63.996 C 191.923 63.994, 195.425 63.128, 199 62.073 C 208.858 59.161, 202.893 59.827, 191.500 62.910 M 239.657 60.750 C 239.404 61.163, 240.540 61.550, 242.182 61.611 C 244.164 61.684, 244.719 61.437, 243.834 60.876 C 242.170 59.821, 240.263 59.764, 239.657 60.750 M 223.148 64.077 C 219.655 64.530, 216.280 65.150, 215.648 65.455 C 215.017 65.760, 216.975 65.713, 220 65.351 C 223.025 64.989, 234.050 64.391, 244.500 64.022 L 263.500 63.352 246.500 63.303 C 237.150 63.276, 226.642 63.624, 223.148 64.077 M 265.750 64.706 C 266.988 64.944, 269.012 64.944, 270.250 64.706 C 271.488 64.467, 270.475 64.272, 268 64.272 C 265.525 64.272, 264.512 64.467, 265.750 64.706 M 282.500 67 C 284.150 67.420, 286.400 67.772, 287.500 67.782 C 289.067 67.797, 288.959 67.627, 287 67 C 285.625 66.560, 283.375 66.208, 282 66.218 C 279.754 66.235, 279.805 66.314, 282.500 67 M 312 70.500 C 312 71.325, 312.450 72, 313 72 C 313.550 72, 314 71.325, 314 70.500 C 314 69.675, 313.550 69, 313 69 C 312.450 69, 312 69.675, 312 70.500 M 168 72.059 C 167.175 72.577, 165.165 73.477, 163.534 74.058 C 161.279 74.862, 160.904 75.323, 161.972 75.982 C 162.891 76.551, 164.219 76.186, 165.822 74.925 C 167.168 73.866, 168.857 73, 169.576 73 C 170.294 73, 171.160 72.550, 171.500 72 C 172.269 70.756, 170.016 70.794, 168 72.059 M 178.500 73.504 L 175.500 74.918 178.500 74.324 C 180.150 73.997, 182.175 73.355, 183 72.895 C 185.693 71.397, 181.875 71.913, 178.500 73.504 M 327.998 77.376 C 329.373 78.179, 330.685 78.648, 330.915 78.418 C 331.536 77.797, 330.785 77.324, 328 76.583 L 325.500 75.917 327.998 77.376 M 321.259 78.085 C 324.041 79.705, 330 82.074, 330 81.560 C 330 81.049, 321.130 76.981, 320.123 77.030 C 319.780 77.047, 320.292 77.522, 321.259 78.085 M 333 79.500 C 333 80.325, 333.450 81, 334 81 C 334.550 81, 335 80.325, 335 79.500 C 335 78.675, 334.550 78, 334 78 C 333.450 78, 333 78.675, 333 79.500 M 339 78.457 C 339 78.737, 341.137 80.051, 343.750 81.377 C 349.210 84.148, 367.787 96.336, 373.067 100.612 C 381.708 107.607, 386.129 111.982, 385.533 112.946 C 385.144 113.575, 384.025 113.071, 382.695 111.668 C 381.488 110.394, 379.712 109.061, 378.750 108.707 C 377.788 108.353, 377 107.599, 377 107.031 C 377 106.464, 376.325 106, 375.500 106 C 373.079 106, 373.769 107.333, 377.507 109.879 C 380.720 112.067, 382.064 114.064, 380.250 113.955 C 378.887 113.872, 370.473 105.017, 371.750 105.008 C 372.438 105.004, 373 104.325, 373 103.500 C 373 102.675, 372.325 102, 371.500 102 C 370.675 102, 370 102.714, 370 103.588 C 370 104.724, 368.130 103.841, 363.432 100.489 C 359.820 97.911, 356.678 95.989, 356.450 96.217 C 356.222 96.445, 358.657 98.480, 361.862 100.740 C 365.067 103, 371.452 108.033, 376.052 111.925 C 380.651 115.816, 385.131 119, 386.007 119 C 387.790 119, 390 117.123, 390 115.609 C 390 115.064, 389.408 115.428, 388.684 116.418 C 387.177 118.478, 383.888 118.227, 383.208 116 C 382.838 114.789, 383.006 114.741, 384.075 115.750 C 385.898 117.470, 388.346 117.343, 387.663 115.565 C 387.360 114.775, 387.576 113.975, 388.142 113.786 C 389.565 113.312, 377.356 102.624, 366.500 94.840 C 354.700 86.380, 339 77.027, 339 78.457 M 331.083 82.377 C 332.106 83.303, 340 86.989, 340 86.541 C 340 85.972, 332.453 82, 331.373 82 C 330.985 82, 330.854 82.170, 331.083 82.377 M 340 83.383 C 340 84.153, 341.233 85.093, 342.740 85.471 C 344.247 85.849, 345.709 86.460, 345.990 86.829 C 346.270 87.198, 347.235 87.950, 348.134 88.500 C 349.032 89.050, 352.314 91.244, 355.426 93.375 C 358.537 95.506, 361.371 96.962, 361.722 96.611 C 362.650 95.684, 355.130 89.071, 352.356 88.374 C 351.060 88.049, 350 87.437, 350 87.013 C 350 86.589, 348.538 85.701, 346.750 85.038 C 344.962 84.375, 342.712 83.417, 341.750 82.908 C 340.476 82.235, 340 82.364, 340 83.383 M 341.083 87.369 C 342.917 88.995, 355 95.706, 355 95.098 C 355 94.671, 353.875 93.808, 352.500 93.182 C 351.125 92.555, 350 91.557, 350 90.962 C 350 90.368, 349.631 90.110, 349.179 90.389 C 348.728 90.668, 346.917 90.020, 345.155 88.948 C 342.375 87.258, 339.855 86.281, 341.083 87.369 M 135.742 94.914 C 131.211 97.819, 131.215 98.390, 135.750 96.103 C 138.088 94.924, 140 93.743, 140 93.480 C 140 92.623, 138.557 93.109, 135.742 94.914 M 364 97.752 C 364 98.817, 367.755 102, 369.011 102 C 371.046 102, 369.895 99.997, 367 98.500 C 365.350 97.647, 364 97.310, 364 97.752 M 125.981 101.129 C 123.605 102.850, 118.944 106.900, 115.624 110.129 C 112.303 113.358, 109.256 116, 108.852 116 C 108.448 116, 107.840 116.450, 107.500 117 C 105.888 119.609, 109.981 117.516, 114 113.678 C 116.475 111.314, 120.975 107.444, 124 105.079 C 128.793 101.331, 131.945 98, 130.700 98 C 130.480 98, 128.356 99.408, 125.981 101.129 M 113.797 124.785 C 114.838 125.500, 114.789 125.930, 113.547 126.961 C 111.571 128.601, 111.541 130.113, 113.500 129.362 C 114.325 129.045, 115 128.159, 115 127.393 C 115 126.627, 115.450 126, 116 126 C 118.316 126, 116.570 128.669, 109.549 135.864 C 105.451 140.064, 100.477 145.750, 98.496 148.500 C 95.175 153.111, 95.151 153.189, 98.197 149.500 C 100.014 147.300, 105.311 141.545, 109.970 136.710 C 117.045 129.368, 118.262 127.639, 117.363 126.210 C 116.770 125.270, 115.434 124.363, 114.393 124.196 C 113.023 123.976, 112.859 124.139, 113.797 124.785 M 379.200 125.200 C 377.047 127.353, 377.908 129.020, 384.156 134.803 C 403.527 152.732, 420.528 182.638, 428.997 213.681 C 430.983 220.959, 431.752 222.864, 431.346 219.500 C 431.015 216.750, 430.409 213.825, 430 213 C 429.591 212.175, 428.946 209.363, 428.567 206.750 C 428.188 204.137, 427.564 202, 427.180 202 C 426.796 202, 425.406 198.963, 424.092 195.250 C 420.521 185.167, 408.727 162.442, 403.526 155.622 C 400.190 151.249, 400.289 148.586, 403.642 152.500 L 406.212 155.500 404.356 152.183 C 403.335 150.359, 401.636 148.109, 400.580 147.183 C 398.776 145.601, 398.699 145.605, 399.299 147.250 C 400.355 150.145, 398.411 149.228, 395.556 145.485 C 393.772 143.146, 393.086 141.305, 393.505 139.985 C 393.879 138.807, 393.677 138, 393.008 138 C 392.389 138, 392.160 138.450, 392.500 139 C 392.840 139.550, 392.381 140, 391.480 140 C 390.179 140, 389.977 139.381, 390.500 137 C 391.015 134.655, 390.814 134, 389.579 134 C 388.711 134, 388 134.477, 388 135.059 C 388 135.641, 387.570 135.852, 387.044 135.527 C 386.518 135.202, 386.345 134.266, 386.659 133.447 C 387.446 131.394, 382.702 126.793, 380.621 127.592 C 378.961 128.229, 378.314 126.542, 379.854 125.590 C 381.295 124.700, 389.229 130.401, 394.500 136.114 C 401.818 144.048, 404.728 147.718, 409.669 155.250 C 412.104 158.963, 414.352 162, 414.663 162 C 416.292 162, 404.222 145.552, 396.374 137.078 C 390.133 130.339, 382.705 124, 381.050 124 C 380.692 124, 379.860 124.540, 379.200 125.200 M 108.347 127.777 C 101.982 133.274, 85.790 153.070, 87.752 152.957 C 88.163 152.933, 90.628 149.895, 93.229 146.207 C 95.830 142.518, 101.170 136.238, 105.095 132.250 C 112.591 124.636, 113.614 123.228, 108.347 127.777 M 106.667 134.167 C 105.658 135.267, 105.019 136.352, 105.246 136.579 C 105.473 136.806, 106.714 135.869, 108.004 134.496 C 109.293 133.123, 109.933 132.037, 109.424 132.083 C 108.916 132.129, 107.675 133.067, 106.667 134.167 M 395 141.878 C 395 142.360, 395.675 143.315, 396.500 144 C 398.128 145.351, 398.332 145.028, 397.393 142.582 C 396.750 140.907, 395 140.392, 395 141.878 M 83.381 158.250 C 82.976 158.938, 82.002 160.625, 81.217 162 C 79.846 164.400, 79.856 164.420, 81.468 162.500 C 83.499 160.080, 85.250 157, 84.594 157 C 84.332 157, 83.786 157.563, 83.381 158.250 M 89.281 161.250 C 87.570 163.468, 81.837 174, 82.340 174 C 82.608 174, 84.643 170.850, 86.863 167 C 90.638 160.452, 91.528 158.336, 89.281 161.250 M 420.742 173.657 C 423.909 179.794, 426.652 184.667, 426.838 184.486 C 427.276 184.060, 418.443 166.950, 416.483 164.429 C 415.658 163.368, 417.574 167.521, 420.742 173.657 M 75.500 172 C 74.106 174.750, 73.191 177, 73.466 177 C 73.741 177, 75.106 174.750, 76.500 172 C 77.894 169.250, 78.809 167, 78.534 167 C 78.259 167, 76.894 169.250, 75.500 172 M 76.154 185.817 C 74.419 189.580, 73.016 193.074, 73.036 193.580 C 73.056 194.086, 74.635 191.167, 76.546 187.093 C 78.457 183.020, 79.860 179.527, 79.664 179.331 C 79.468 179.135, 77.889 182.054, 76.154 185.817 M 66.225 192.181 C 61.838 204.025, 62.030 205.884, 66.483 194.680 C 67.973 190.929, 68.969 187.635, 68.694 187.361 C 68.420 187.087, 67.309 189.256, 66.225 192.181 M 428.573 190 C 428.941 191.375, 429.659 193.175, 430.169 194 C 430.813 195.042, 430.892 194.737, 430.427 193 C 430.059 191.625, 429.341 189.825, 428.831 189 C 428.187 187.958, 428.108 188.263, 428.573 190 M 71.116 198.098 C 70.502 199.858, 70.032 201.794, 70.070 202.399 C 70.109 203.005, 70.786 201.739, 71.574 199.587 C 72.363 197.435, 72.833 195.500, 72.620 195.286 C 72.406 195.073, 71.729 196.338, 71.116 198.098 M 59.792 212.500 C 58.875 216.350, 57.360 224.555, 56.426 230.733 C 55.055 239.802, 54.970 242.259, 55.986 243.483 C 57.650 245.488, 60.424 245.408, 62.128 243.308 C 63.140 242.059, 63.162 241.819, 62.210 242.392 C 61.234 242.979, 61.078 242.538, 61.568 240.584 C 62.378 237.358, 60.819 237.214, 57.955 240.250 L 55.832 242.500 56.511 237.500 C 57.886 227.375, 60.055 215.411, 61.088 212.258 C 61.672 210.475, 61.995 208.225, 61.805 207.258 C 61.616 206.291, 60.710 208.650, 59.792 212.500 M 436.132 212 C 436.106 212.825, 436.702 215.975, 437.457 219 C 438.212 222.025, 438.859 223.600, 438.896 222.500 C 438.932 221.400, 438.335 218.250, 437.570 215.500 C 436.805 212.750, 436.158 211.175, 436.132 212 M 432.544 230 C 432.785 233.025, 433.039 236.625, 433.109 238 C 433.178 239.375, 433.609 238.262, 434.067 235.527 C 434.524 232.793, 434.516 230.318, 434.050 230.027 C 433.583 229.737, 432.955 228.375, 432.653 227 C 432.352 225.625, 432.303 226.975, 432.544 230 M 63.232 232 C 63.232 233.925, 63.438 234.713, 63.689 233.750 C 63.941 232.787, 63.941 231.213, 63.689 230.250 C 63.438 229.287, 63.232 230.075, 63.232 232 M 436 242 C 436 242.550, 436.675 243, 437.500 243 C 438.325 243, 439 242.550, 439 242 C 439 241.450, 438.325 241, 437.500 241 C 436.675 241, 436 241.450, 436 242 M 83 318.691 C 84.925 318.894, 87.400 319.452, 88.500 319.930 C 89.600 320.407, 91.919 321.330, 93.652 321.980 C 96.499 323.047, 109.138 335.056, 116.826 343.999 C 118.481 345.924, 120.100 347.233, 120.425 346.908 C 120.749 346.584, 115.938 341.098, 109.732 334.717 C 97.328 321.963, 90.876 317.893, 83.500 318.170 C 79.522 318.319, 79.519 318.322, 83 318.691 M 408.264 318.718 C 409.784 318.947, 412.034 318.941, 413.264 318.704 C 414.494 318.467, 413.250 318.279, 410.500 318.286 C 407.750 318.294, 406.744 318.488, 408.264 318.718 M 74.441 320.582 C 72.665 322.029, 72.656 322.114, 74.332 321.582 C 75.339 321.262, 77.364 320.993, 78.832 320.985 C 80.922 320.973, 81.175 320.759, 80 320 C 77.891 318.637, 76.671 318.764, 74.441 320.582 M 400.500 320.676 C 394.613 323.807, 384.862 333.352, 369.987 350.547 C 361.684 360.146, 355.115 368, 355.391 368 C 355.667 368, 361.430 361.597, 368.196 353.771 C 383.999 335.497, 395.166 324.477, 400.924 321.477 C 403.441 320.166, 405.050 319.090, 404.500 319.087 C 403.950 319.083, 402.150 319.798, 400.500 320.676 M 417.441 320.532 C 418.509 321.339, 420.084 321.984, 420.941 321.965 C 421.940 321.942, 421.602 321.416, 420 320.500 C 416.728 318.630, 414.955 318.652, 417.441 320.532 M 402.946 323.879 C 398.341 326.862, 393.381 331.439, 386.500 339.057 C 384.300 341.493, 386.817 339.336, 392.094 334.264 C 397.371 329.192, 403.671 324.142, 406.094 323.043 C 408.517 321.943, 409.801 321.034, 408.946 321.022 C 408.091 321.010, 405.391 322.296, 402.946 323.879 M 91.500 324.874 C 95.208 327.181, 105.820 337.607, 112.500 345.506 C 115.250 348.758, 118.880 353.011, 120.567 354.959 C 136.189 372.994, 153.106 394.370, 155.650 399.289 C 156.473 400.882, 157.403 401.930, 157.716 401.617 C 158.029 401.304, 157.790 400.452, 157.184 399.722 C 155.903 398.178, 156.769 393.739, 158.182 394.612 C 158.707 394.937, 158.886 395.855, 158.580 396.653 C 158.273 397.451, 158.421 397.858, 158.907 397.558 C 159.393 397.257, 160.063 397.721, 160.395 398.588 C 161.241 400.791, 161.154 401.213, 160 400.500 C 158.734 399.718, 158.734 401.042, 160 403 C 160.804 404.244, 160.975 404.159, 161 402.500 C 161.025 400.841, 161.196 400.756, 162 402 C 163.570 404.430, 163.139 402.173, 161.369 398.700 C 159.183 394.410, 151.150 383.294, 143.158 373.500 C 131.812 359.594, 121.653 348.013, 121.200 348.467 C 120.959 348.708, 121.378 349.538, 122.131 350.312 C 123.985 352.218, 128.395 357.252, 135.017 365.025 C 149.742 382.307, 156.943 392.500, 156.263 395.101 C 155.993 396.133, 155.343 396.712, 154.818 396.388 C 154.293 396.063, 154.105 395.168, 154.400 394.399 C 154.696 393.629, 154.461 393, 153.879 393 C 152.777 393, 149.091 389.033, 149.033 387.784 C 149.015 387.391, 147.762 385.745, 146.250 384.127 C 144.738 382.509, 141.025 378.147, 138 374.435 C 134.975 370.722, 131.037 366.014, 129.250 363.971 C 127.463 361.929, 126 359.450, 126 358.462 C 126 357.475, 125.703 356.964, 125.340 357.327 C 124.605 358.061, 121.375 353.934, 121.758 352.750 C 121.891 352.337, 121.356 352, 120.570 352 C 119.783 352, 118.985 350.988, 118.796 349.750 C 118.607 348.512, 117.891 347.616, 117.204 347.757 C 116.518 347.899, 115.527 346.886, 115.003 345.507 C 114.478 344.128, 113.588 343, 113.025 343 C 112.461 343, 112 342.325, 112 341.500 C 112 340.675, 111.501 340, 110.891 340 C 109.355 340, 105.038 335.774, 105.017 334.250 C 105.008 333.563, 104.325 333, 103.500 333 C 102.675 333, 102 332.657, 102 332.237 C 102 331.082, 91.343 322.999, 89.825 323.004 C 89.096 323.006, 89.850 323.848, 91.500 324.874 M 83.152 339.248 C 82.518 339.882, 82 340.795, 82 341.277 C 82 341.759, 91.525 351.457, 103.166 362.827 C 144.947 403.634, 151.865 413.895, 146.120 426.541 C 145.111 428.764, 142.836 431.802, 141.066 433.291 C 139.295 434.781, 138.243 436, 138.727 436 C 140.362 436, 145.887 429.527, 147.449 425.782 C 148.302 423.737, 149 420.535, 149 418.666 C 149 414.099, 143.096 402.670, 137.549 396.500 C 135.077 393.750, 133.006 390.600, 132.948 389.500 C 132.890 388.400, 132.616 388.060, 132.339 388.745 C 132.005 389.574, 130.837 388.990, 128.849 387.002 C 126.638 384.792, 126.036 383.463, 126.533 381.897 C 127.174 379.875, 127.346 379.932, 130.301 383.139 C 136.542 389.913, 143.761 398.681, 146.478 402.787 C 149.293 407.041, 150.873 408.499, 149.122 405.228 C 144.735 397.030, 119.324 368.919, 100.076 350.971 C 87.561 339.301, 84.925 337.475, 83.152 339.248 M 83.486 340.023 C 82.805 341.125, 84.692 345, 85.910 345 C 86.372 345, 86.750 343.902, 86.750 342.559 C 86.750 340.063, 84.528 338.337, 83.486 340.023 M 409.636 340.495 C 410.077 341.644, 402.128 350.309, 381.375 371.304 C 365.494 387.369, 351.687 401.973, 350.693 403.757 C 348.120 408.377, 349.229 407.769, 352.529 402.750 C 354.065 400.413, 367.850 385.870, 383.161 370.433 C 398.473 354.996, 411 341.860, 411 341.242 C 411 340.624, 410.555 339.843, 410.011 339.507 C 409.438 339.153, 409.281 339.568, 409.636 340.495 M 389.241 355.750 C 370.682 374.224, 361.318 384, 362.181 384 C 362.521 384, 365.623 380.962, 369.075 377.250 C 372.526 373.538, 382.350 363.637, 390.907 355.250 C 399.463 346.863, 406.148 340, 405.763 340 C 405.378 340, 397.943 347.087, 389.241 355.750 M 72.701 341.632 C 71.427 342.906, 71.970 345.905, 74.077 349.226 C 75.520 351.499, 75.958 351.812, 75.510 350.250 C 75.112 348.860, 75.299 348, 76 348 C 76.698 348, 76.891 347.133, 76.502 345.750 C 75.652 342.730, 77.231 344.871, 80.557 351.250 C 81.919 353.863, 83.289 356, 83.600 356 C 83.911 356, 82.412 352.738, 80.267 348.751 C 76.643 342.013, 74.416 339.918, 72.701 341.632 M 416.817 342.750 C 415.995 343.712, 412.487 349.675, 409.022 356 C 401.147 370.371, 401.472 369.721, 402.769 368.500 C 403.353 367.950, 406.835 361.989, 410.506 355.253 C 414.177 348.518, 417.609 342.741, 418.134 342.417 C 418.658 342.093, 419.855 342.429, 420.794 343.164 C 422.331 344.367, 422.364 344.326, 421.128 342.750 C 420.373 341.788, 419.430 341, 419.033 341 C 418.635 341, 417.638 341.788, 416.817 342.750 M 73 344.500 C 73 345.875, 73.498 347, 74.107 347 C 74.730 347, 74.934 346.270, 74.573 345.330 C 74.220 344.409, 74.508 343.294, 75.216 342.845 C 76.160 342.246, 76.037 342.027, 74.750 342.015 C 73.546 342.005, 73 342.780, 73 344.500 M 88 343.417 C 88 344.288, 88.675 345, 89.500 345 C 90.325 345, 91 345.436, 91 345.969 C 91 346.501, 90.213 346.643, 89.250 346.284 C 87.979 345.810, 88.185 346.362, 90 348.298 C 91.375 349.765, 92.950 350.966, 93.500 350.967 C 94.050 350.968, 93.825 350.533, 93 350 C 91.737 349.184, 91.795 349.028, 93.367 349.015 C 94.743 349.004, 95.096 349.525, 94.711 350.999 C 94.423 352.098, 94.596 353.250, 95.094 353.558 C 95.592 353.866, 96 353.641, 96 353.059 C 96 352.477, 96.684 352, 97.519 352 C 98.628 352, 98.874 352.655, 98.428 354.430 C 97.894 356.558, 98.109 356.805, 100.159 356.419 C 101.447 356.176, 101.941 356.244, 101.258 356.570 C 99.818 357.256, 101.370 361, 103.094 361 C 103.657 361, 103.840 360.550, 103.500 360 C 103.160 359.450, 103.632 359, 104.548 359 C 105.618 359, 106.008 359.537, 105.638 360.500 C 104.941 362.317, 105.852 365, 107.166 365 C 107.690 365, 107.840 364.550, 107.500 364 C 107.160 363.450, 107.359 363, 107.941 363 C 108.523 363, 109.014 364.012, 109.031 365.250 C 109.049 366.488, 110.174 368.309, 111.531 369.297 C 112.918 370.306, 114 370.609, 114 369.988 C 114 369.380, 114.457 369.165, 115.016 369.510 C 115.575 369.856, 115.815 370.491, 115.548 370.922 C 115.282 371.353, 115.710 372.559, 116.500 373.603 C 117.324 374.690, 117.950 374.967, 117.968 374.250 C 117.986 373.563, 118.480 373, 119.067 373 C 119.654 373, 119.898 373.788, 119.608 374.750 C 119.300 375.775, 120.104 377.667, 121.548 379.314 C 123.686 381.754, 124.205 381.938, 125.443 380.699 C 126.682 379.461, 124.428 376.825, 108.522 360.914 C 98.429 350.818, 89.683 342.394, 89.086 342.195 C 88.489 341.996, 88 342.546, 88 343.417 M 379.437 347.250 L 376.500 350.500 379.750 347.563 C 381.538 345.948, 383 344.485, 383 344.313 C 383 343.540, 382.175 344.221, 379.437 347.250 M 417.099 350.557 C 415.944 352.514, 415 354.348, 415 354.633 C 415 354.918, 413.200 358.233, 411 362 C 408.800 365.767, 407.008 369.220, 407.018 369.674 C 407.038 370.631, 414.086 358.720, 417.623 351.750 C 420.450 346.180, 420.122 345.434, 417.099 350.557 M 77.500 356 C 78.353 357.650, 79.276 359, 79.551 359 C 79.826 359, 79.353 357.650, 78.500 356 C 77.647 354.350, 76.724 353, 76.449 353 C 76.174 353, 76.647 354.350, 77.500 356 M 88.448 365.500 C 91.067 370.450, 93.673 374.950, 94.239 375.500 C 94.805 376.050, 93.115 372.450, 90.483 367.500 C 87.851 362.550, 85.245 358.050, 84.692 357.500 C 84.139 356.950, 85.829 360.550, 88.448 365.500 M 360.637 368.750 C 351.734 378.976, 345.940 386.241, 349.672 382.500 C 353.207 378.956, 370.158 359, 369.633 359 C 369.354 359, 365.306 363.387, 360.637 368.750 M 84.969 369.500 C 87.871 375, 90.705 379.950, 91.266 380.500 C 91.827 381.050, 89.908 377, 87 371.500 C 84.092 366, 81.259 361.050, 80.703 360.500 C 80.147 359.950, 82.067 364, 84.969 369.500 M 110.229 366.187 C 110.727 367.682, 113 368.505, 113 367.190 C 113 366.653, 112.287 365.941, 111.416 365.606 C 110.443 365.233, 109.985 365.456, 110.229 366.187 M 352.004 371.496 C 350.714 372.869, 349.848 374.160, 350.079 374.364 C 350.311 374.569, 351.547 373.446, 352.826 371.868 C 355.689 368.338, 355.185 368.110, 352.004 371.496 M 53.250 370.662 C 52.563 370.940, 52 371.593, 52 372.114 C 52 373.943, 71.144 408.522, 73.252 410.500 C 74.717 411.875, 74.972 411.953, 74.069 410.750 C 73.183 409.570, 73.121 409, 73.878 409 C 74.495 409, 75 408.530, 75 407.956 C 75 407.382, 74.290 407.045, 73.423 407.206 C 72.298 407.416, 69.149 402.517, 62.443 390.122 C 57.271 380.565, 53.282 372.352, 53.579 371.872 C 54.436 370.486, 56.161 370.854, 57.695 372.750 C 58.972 374.329, 59.004 374.281, 58.020 372.250 C 56.952 370.047, 55.759 369.650, 53.250 370.662 M 399.500 373 C 398.647 374.650, 398.174 376, 398.449 376 C 398.724 376, 399.647 374.650, 400.500 373 C 401.353 371.350, 401.826 370, 401.551 370 C 401.276 370, 400.353 371.350, 399.500 373 M 433.732 374.250 C 430.218 380.327, 428.601 383.659, 429.728 382.500 C 431.088 381.101, 437.252 370, 436.668 370 C 436.405 370, 435.084 371.913, 433.732 374.250 M 439.513 371.160 C 439.860 372.073, 439.400 374.260, 438.490 376.020 C 437.580 377.780, 437.263 378.955, 437.787 378.632 C 438.311 378.308, 439.313 376.658, 440.014 374.966 C 441.008 372.568, 441.023 371.625, 440.085 370.694 C 439.150 369.766, 439.022 369.870, 439.513 371.160 M 59.180 375.500 C 59.890 377.642, 65.061 387, 65.534 387 C 65.809 387, 64.919 384.863, 63.557 382.250 C 61.089 377.516, 58.549 373.600, 59.180 375.500 M 345.352 379.750 C 343.840 381.813, 341.905 384.392, 341.051 385.483 C 339.656 387.266, 339.656 387.346, 341.048 386.278 C 342.822 384.917, 349.386 376, 348.613 376 C 348.332 376, 346.865 377.688, 345.352 379.750 M 401 380 C 399.878 382.200, 399.184 384, 399.459 384 C 399.734 384, 400.878 382.200, 402 380 C 403.122 377.800, 403.816 376, 403.541 376 C 403.266 376, 402.122 377.800, 401 380 M 95.038 377.500 C 95.041 378.050, 95.965 379.625, 97.089 381 C 98.448 382.661, 98.787 382.828, 98.101 381.500 C 96.415 378.238, 95.030 376.430, 95.038 377.500 M 395 381 C 393.878 383.200, 393.184 385, 393.459 385 C 393.734 385, 394.878 383.200, 396 381 C 397.122 378.800, 397.816 377, 397.541 377 C 397.266 377, 396.122 378.800, 395 381 M 94 386 C 95.122 388.200, 96.266 390, 96.541 390 C 96.816 390, 96.122 388.200, 95 386 C 93.878 383.800, 92.734 382, 92.459 382 C 92.184 382, 92.878 383.800, 94 386 M 433.500 385 C 432.647 386.650, 432.174 388, 432.449 388 C 432.724 388, 433.647 386.650, 434.500 385 C 435.353 383.350, 435.826 382, 435.551 382 C 435.276 382, 434.353 383.350, 433.500 385 M 357.920 388.750 C 353.266 393.757, 350.594 397, 351.123 397 C 351.360 397, 353.932 394.300, 356.837 391 C 362.672 384.371, 363.404 382.850, 357.920 388.750 M 101.695 389.487 C 102.610 391.406, 103.536 392.797, 103.753 392.580 C 104.210 392.123, 101.175 386, 100.490 386 C 100.239 386, 100.781 387.569, 101.695 389.487 M 390.491 389.017 C 389.429 391.072, 389.284 391.943, 390.087 391.446 C 390.968 390.902, 391.150 391.167, 390.701 392.336 C 390.347 393.258, 390.547 394, 391.148 394 C 391.774 394, 391.990 393.069, 391.658 391.802 C 391.342 390.593, 391.579 389.007, 392.184 388.278 C 392.790 387.548, 393.029 386.696, 392.716 386.383 C 392.403 386.070, 391.402 387.255, 390.491 389.017 M 422.067 395.567 C 419.226 400.884, 417.060 405.394, 417.255 405.588 C 417.449 405.783, 419.945 401.603, 422.800 396.300 C 425.655 390.997, 427.821 386.487, 427.612 386.279 C 427.403 386.070, 424.908 390.249, 422.067 395.567 M 336.769 391.772 C 333.418 396.836, 330 403.623, 330.001 405.210 C 330.001 405.920, 331.321 403.800, 332.934 400.500 C 334.547 397.200, 336.840 393.038, 338.031 391.250 C 339.222 389.462, 339.987 388, 339.731 388 C 339.475 388, 338.142 389.698, 336.769 391.772 M 70.961 397.500 C 73.313 401.900, 75.699 405.950, 76.264 406.500 C 76.829 407.050, 75.360 403.900, 73 399.500 C 70.640 395.100, 68.253 391.050, 67.697 390.500 C 67.140 389.950, 68.609 393.100, 70.961 397.500 M 340.763 393.250 C 337.761 397.192, 333.992 404.440, 334.022 406.210 C 334.034 406.920, 334.911 405.589, 335.971 403.254 C 337.032 400.918, 339.293 396.980, 340.998 394.504 C 344.576 389.303, 344.416 388.451, 340.763 393.250 M 392.649 394.250 C 391.061 396.489, 391.046 396.491, 389.437 394.500 L 387.820 392.500 388.174 394.500 C 388.651 397.202, 391.886 397.057, 393.750 394.250 C 394.572 393.012, 395.019 392, 394.744 392 C 394.469 392, 393.526 393.012, 392.649 394.250 M 347.006 402.150 C 345.353 404.433, 344.002 406.795, 344.004 407.400 C 344.006 408.005, 344.955 406.925, 346.113 405 C 347.271 403.075, 348.914 400.712, 349.764 399.750 C 350.614 398.788, 351.018 398, 350.661 398 C 350.304 398, 348.660 399.868, 347.006 402.150 M 419.314 405.750 C 418.972 406.712, 418.503 407.950, 418.272 408.500 C 418.041 409.050, 418.560 408.626, 419.426 407.559 C 420.998 405.620, 421.473 404, 420.469 404 C 420.176 404, 419.657 404.788, 419.314 405.750 M 159.664 406.832 C 159.849 407.564, 160.032 408.914, 160.070 409.832 C 160.126 411.165, 160.313 411.098, 161 409.500 C 162.158 406.804, 162.187 405.766, 161.085 406.447 C 160.582 406.758, 159.981 406.672, 159.749 406.256 C 159.517 405.840, 159.479 406.099, 159.664 406.832 M 342.053 412.750 C 340.808 417.232, 340.806 421.761, 342.047 424.500 C 342.703 425.950, 342.819 425.399, 342.466 422.500 C 342.101 419.505, 342.216 419.002, 342.923 420.500 C 343.610 421.956, 343.836 420.665, 343.754 415.750 C 343.693 412.038, 343.519 409, 343.368 409 C 343.217 409, 342.625 410.688, 342.053 412.750 M 161.794 416.289 C 159.537 420.770, 157.895 426.183, 159.001 425.499 C 159.508 425.186, 160.223 423.326, 160.591 421.366 C 161.061 418.864, 161.514 418.204, 162.115 419.151 C 162.585 419.893, 162.983 420.050, 163 419.500 C 163.017 418.950, 163.461 419.175, 163.987 420 C 164.638 421.021, 164.748 420.224, 164.330 417.500 C 163.993 415.300, 163.648 413.405, 163.565 413.289 C 163.481 413.174, 162.684 414.524, 161.794 416.289 M 152.286 418.500 C 152.294 421.250, 152.488 422.256, 152.718 420.736 C 152.947 419.216, 152.941 416.966, 152.704 415.736 C 152.467 414.506, 152.279 415.750, 152.286 418.500 M 345.286 418.500 C 345.294 421.250, 345.488 422.256, 345.718 420.736 C 345.947 419.216, 345.941 416.966, 345.704 415.736 C 345.467 414.506, 345.279 415.750, 345.286 418.500 M 333.070 419.857 C 333.020 421.527, 332.563 422.046, 331.500 421.638 C 327.277 420.018, 333.577 430.926, 339.599 435.659 C 344.837 439.777, 349.810 442.235, 351.184 441.386 C 351.818 440.994, 352.034 441.137, 351.678 441.712 C 351.302 442.321, 353.328 443.191, 356.690 443.867 C 365.083 445.552, 365.278 445.177, 357.500 442.316 C 345.206 437.793, 337.257 430.760, 334.537 422 C 333.606 419.003, 333.116 418.287, 333.070 419.857 M 160.708 425.391 C 159.729 427.758, 157.507 431.001, 155.770 432.597 L 152.612 435.500 155.306 432.173 C 159.650 426.809, 158.417 426.913, 152.576 432.402 C 145.479 439.073, 143.247 440.913, 142.798 440.465 C 142.595 440.262, 139.520 441.212, 135.965 442.575 L 129.500 445.053 134.500 444.463 C 141.578 443.626, 151.139 438.914, 156.369 433.683 C 161.359 428.694, 164.607 423.207, 163.329 421.929 C 162.866 421.466, 161.687 423.024, 160.708 425.391 M 332.737 423.290 C 332.041 425.058, 333.769 429, 335.241 429 C 336.276 429, 336.198 427.608, 335.097 426.450 C 334.600 425.928, 334.025 424.600, 333.818 423.500 C 333.471 421.660, 333.385 421.643, 332.737 423.290 M 146.512 431.737 C 142.474 436.258, 136.513 440, 133.349 440 C 131.803 440, 131.825 439.843, 133.559 438.532 C 135.858 436.793, 135.139 436.617, 131.456 438.017 C 129.315 438.831, 129.014 439.311, 129.943 440.432 C 132.276 443.243, 143.684 437.726, 148.445 431.484 C 152.382 426.321, 151.213 426.474, 146.512 431.737 M 344.421 429.642 C 347.227 435.448, 358.844 442.819, 363.073 441.477 C 366.375 440.429, 365.195 438.467, 360.510 437.214 C 357.962 436.532, 354.217 434.389, 351.849 432.257 C 348.899 429.600, 348.023 429.149, 348.857 430.719 C 349.506 431.939, 352.163 434.183, 354.762 435.706 C 358.170 437.704, 358.988 438.571, 357.696 438.820 C 355.921 439.162, 349.579 435.017, 347.331 432.045 C 346.688 431.195, 345.429 429.600, 344.533 428.500 C 343.013 426.635, 343.006 426.713, 344.421 429.642 M 149.405 437.146 C 147.513 439.276, 147.515 439.283, 149.694 438.140 C 152.125 436.865, 153.622 435, 152.214 435 C 151.717 435, 150.453 435.965, 149.405 437.146" stroke="none" fill="#20f4f9" fill-rule="evenodd"/><path d="M 239.750 55.740 C 243.188 55.936, 248.813 55.936, 252.250 55.740 C 255.688 55.545, 252.875 55.385, 246 55.385 C 239.125 55.385, 236.313 55.545, 239.750 55.740 M 108.453 109.250 L 104.500 113.500 108.750 109.547 C 112.702 105.871, 113.460 105, 112.703 105 C 112.540 105, 110.627 106.912, 108.453 109.250 M 130.430 129.821 C 124.969 134.673, 118.994 140.410, 117.153 142.571 C 115.312 144.732, 112.162 148.424, 110.153 150.775 C 108.144 153.126, 106.613 155.488, 106.750 156.025 C 106.888 156.561, 106.567 157, 106.037 157 C 104.806 157, 98.517 166.349, 93.257 176 C 85.741 189.787, 78.306 210.258, 76.549 222 C 76.261 223.925, 75.504 227.750, 74.866 230.500 C 72.183 242.071, 73.822 283.973, 77.223 290.770 C 78.080 292.481, 78.069 293.331, 77.180 294.220 C 75.614 295.786, 75.685 297, 77.342 297 C 78.113 297, 79.456 299.551, 80.500 303 C 81.499 306.300, 82.695 309, 83.158 309 C 83.621 309, 83.888 309.506, 83.750 310.125 C 83.416 311.629, 85.169 312.177, 86.869 311.101 C 88.018 310.374, 87.979 309.451, 86.626 305.367 C 79.328 283.342, 77.305 251.158, 81.701 227 C 82.552 222.325, 83.304 217.600, 83.374 216.500 C 83.443 215.400, 83.728 214.275, 84.007 214 C 84.287 213.725, 85.807 209.450, 87.387 204.500 C 92.140 189.608, 101.283 172.406, 111.835 158.500 C 118.005 150.370, 131.234 136.764, 138.250 131.334 C 141.412 128.886, 144 126.099, 144 125.142 C 144 123.442, 142.219 121, 140.980 121 C 140.639 121, 135.892 124.970, 130.430 129.821 M 352.039 122.928 C 350.622 125.576, 351.410 127.081, 355.742 130 C 361.512 133.888, 380.001 152.789, 385 159.911 C 387.475 163.437, 390.288 167.150, 391.250 168.161 C 392.212 169.173, 392.978 170.237, 392.952 170.526 C 392.842 171.727, 398.390 181, 399.218 181 C 399.713 181, 399.840 181.450, 399.500 182 C 399.160 182.550, 399.434 183, 400.108 183 C 400.782 183, 401.079 183.254, 400.769 183.564 C 400.459 183.874, 401.954 188.161, 404.092 193.091 C 408.768 203.871, 412.372 216.165, 414.618 229 C 416.622 240.450, 416.876 265.886, 415.102 277.500 C 414.018 284.600, 409.112 304.939, 407.421 309.346 C 406.970 310.519, 407.326 310.999, 408.643 310.996 C 411.441 310.989, 417.434 298.189, 418.861 289.171 C 419.499 285.140, 419.764 281.428, 419.451 280.921 C 419.138 280.415, 419.366 280, 419.957 280 C 420.548 280, 421.024 278.762, 421.015 277.250 C 421.006 275.738, 421.446 270.675, 421.994 266 C 423.088 256.667, 422.283 236, 420.826 236 C 420.322 236, 420.195 234.477, 420.544 232.615 C 420.931 230.553, 420.747 228.962, 420.073 228.545 C 419.465 228.169, 419.240 227.421, 419.573 226.882 C 420.468 225.434, 417.245 211.907, 413.310 200.597 C 406.164 180.057, 392.801 157.553, 380.741 145.750 C 376.948 142.037, 374.174 139, 374.577 139 C 374.980 139, 374.495 138.100, 373.500 137 C 372.505 135.900, 371.210 135, 370.622 135 C 370.035 135, 367.824 133.088, 365.710 130.750 C 363.595 128.412, 362.214 127.175, 362.640 128 C 363.065 128.825, 361.590 127.588, 359.362 125.250 C 354.849 120.517, 353.549 120.105, 352.039 122.928 M 386.500 138 C 390.320 141.850, 393.671 145, 393.946 145 C 394.221 145, 391.320 141.850, 387.500 138 C 383.680 134.150, 380.329 131, 380.054 131 C 379.779 131, 382.680 134.150, 386.500 138 M 226.946 188.750 L 223.500 192.500 227.250 189.054 C 230.740 185.846, 231.460 185, 230.696 185 C 230.529 185, 228.842 186.688, 226.946 188.750 M 261.958 191.250 C 266.102 195.665, 267 196.459, 267 195.708 C 267 195.548, 264.863 193.410, 262.250 190.958 L 257.500 186.500 261.958 191.250 M 257.500 203 C 261.874 207.400, 265.678 211, 265.953 211 C 266.228 211, 262.874 207.400, 258.500 203 C 254.126 198.600, 250.322 195, 250.047 195 C 249.772 195, 253.126 198.600, 257.500 203 M 218.946 211.750 L 215.500 215.500 219.250 212.054 C 222.740 208.846, 223.460 208, 222.696 208 C 222.529 208, 220.842 209.688, 218.946 211.750 M 233.437 213.250 L 230.500 216.500 233.750 213.563 C 236.779 210.825, 237.460 210, 236.687 210 C 236.515 210, 235.052 211.463, 233.437 213.250 M 281.573 220.906 L 278.645 224.500 282.021 221.282 C 283.878 219.512, 285.196 217.895, 284.949 217.688 C 284.702 217.481, 283.183 218.929, 281.573 220.906 M 263.453 222.250 L 259.500 226.500 263.750 222.547 C 266.087 220.373, 268 218.460, 268 218.297 C 268 217.540, 267.129 218.298, 263.453 222.250 M 217.469 228.250 L 211.500 234.500 217.750 228.531 C 221.188 225.249, 224 222.436, 224 222.281 C 224 221.542, 223.013 222.444, 217.469 228.250 M 234.462 227.250 L 229.500 232.500 234.750 227.538 C 239.628 222.926, 240.459 222, 239.712 222 C 239.554 222, 237.192 224.363, 234.462 227.250 M 265.462 236.250 L 260.500 241.500 265.750 236.538 C 270.628 231.926, 271.459 231, 270.712 231 C 270.554 231, 268.192 233.363, 265.462 236.250 M 256 244.621 C 256 245.146, 258.363 247.808, 261.250 250.538 L 266.500 255.500 261.500 250.021 C 258.750 247.008, 256.387 244.345, 256.250 244.104 C 256.113 243.864, 256 244.096, 256 244.621 M 249.958 255.250 C 252.410 257.863, 254.548 260, 254.708 260 C 255.459 260, 254.665 259.102, 250.250 254.958 L 245.500 250.500 249.958 255.250 M 277 265.313 C 277 265.485, 278.462 266.948, 280.250 268.563 L 283.500 271.500 280.563 268.250 C 277.825 265.221, 277 264.540, 277 265.313 M 268 272.500 C 270.987 275.525, 273.657 278, 273.932 278 C 274.207 278, 271.987 275.525, 269 272.500 C 266.013 269.475, 263.343 267, 263.068 267 C 262.793 267, 265.013 269.475, 268 272.500 M 146.425 282.334 C 146.144 283.067, 146.067 287.455, 146.253 292.084 L 146.593 300.500 146.796 291.300 L 147 282.100 152.750 281.739 L 158.500 281.378 152.719 281.189 C 148.682 281.057, 146.783 281.402, 146.425 282.334 M 245 281.313 C 245 281.485, 246.463 282.948, 248.250 284.563 L 251.500 287.500 248.563 284.250 C 245.825 281.221, 245 280.540, 245 281.313 M 306.708 281.798 C 307.459 282.276, 308.043 285.954, 308.252 291.533 L 308.589 300.500 308.794 290.750 C 308.978 282.048, 308.812 281.002, 307.250 281.015 C 306.052 281.026, 305.881 281.273, 306.708 281.798 M 243.360 291 C 243.360 296.225, 243.529 298.363, 243.735 295.750 C 243.941 293.137, 243.941 288.863, 243.735 286.250 C 243.529 283.637, 243.360 285.775, 243.360 291 M 341 287.313 C 341 287.485, 342.462 288.948, 344.250 290.563 L 347.500 293.500 344.563 290.250 C 341.825 287.221, 341 286.540, 341 287.313 M 102.837 301.927 C 99.506 302.995, 89.867 308.200, 90.341 308.675 C 90.535 308.868, 92.323 308.345, 94.314 307.513 C 102.152 304.238, 111.594 306.406, 121.602 313.777 C 129.782 319.801, 153.953 349.035, 165.432 366.786 C 174.935 381.482, 178.360 393.415, 176.297 404.647 C 175.705 407.866, 175.324 410.615, 175.450 410.756 C 175.576 410.897, 176.539 410.032, 177.589 408.834 C 178.855 407.392, 178.993 406.913, 178 407.415 C 177.175 407.832, 177.540 407.324, 178.812 406.286 C 183.571 402.400, 183.691 391.194, 179.104 378.984 C 176.657 372.472, 167.912 358.282, 164.731 355.663 C 163.504 354.653, 163.079 354.127, 163.787 354.495 C 164.495 354.863, 163.621 353.102, 161.845 350.582 C 160.068 348.062, 158.252 346, 157.807 346 C 157.363 346, 157 345.483, 157 344.851 C 157 343.285, 148.036 332.500, 146.734 332.500 C 146.160 332.500, 145.564 331.639, 145.410 330.587 C 145.256 329.535, 143.880 327.510, 142.354 326.087 L 139.579 323.500 141.540 326 L 143.500 328.500 141.274 326.616 C 140.049 325.580, 139.243 324.416, 139.482 324.029 C 139.721 323.642, 138.536 321.789, 136.848 319.913 C 135.160 318.036, 134.391 317.400, 135.139 318.500 C 136.386 320.333, 136.355 320.386, 134.761 319.137 C 133.805 318.387, 133.251 317.403, 133.531 316.950 C 134.122 315.994, 126.160 309.377, 124.867 309.750 C 124.390 309.888, 124.112 309.476, 124.250 308.835 C 124.608 307.168, 114.062 301.927, 109.417 301.464 C 107.263 301.249, 104.302 301.457, 102.837 301.927 M 379.396 302.374 C 377.139 303.105, 373.314 305.073, 370.896 306.748 C 362.760 312.385, 344.946 332.073, 330.858 351 C 316.485 370.310, 310.686 382.111, 311.694 390 C 312.034 392.654, 311.887 393.137, 311.086 392 C 310.255 390.819, 310.027 391.204, 310.015 393.809 C 310.005 396.061, 310.369 396.890, 311.156 396.404 C 311.979 395.895, 312.136 396.569, 311.702 398.742 C 311.226 401.121, 311.770 402.820, 314.169 406.441 C 315.861 408.996, 317.449 410.885, 317.696 410.637 C 317.943 410.390, 317.665 408.458, 317.078 406.344 C 314.665 397.652, 316.371 386.132, 321.603 375.800 C 325.713 367.683, 340.814 346.845, 352.257 333.500 C 361.663 322.531, 373.477 311.533, 378.522 309.050 C 385.481 305.625, 393.373 305.187, 399.477 307.887 C 406.109 310.821, 403.472 307.842, 396.529 304.557 C 389.793 301.370, 384.556 300.703, 379.396 302.374 M 93.500 345 C 95.648 347.200, 97.631 349, 97.906 349 C 98.181 349, 96.648 347.200, 94.500 345 C 92.352 342.800, 90.369 341, 90.094 341 C 89.819 341, 91.352 342.800, 93.500 345 M 406.453 347.250 L 402.500 351.500 406.750 347.547 C 410.702 343.871, 411.460 343, 410.703 343 C 410.540 343, 408.627 344.913, 406.453 347.250 M 94.500 355 C 96.648 357.200, 98.631 359, 98.906 359 C 99.181 359, 97.648 357.200, 95.500 355 C 93.352 352.800, 91.369 351, 91.094 351 C 90.819 351, 92.352 352.800, 94.500 355 M 125 352.313 C 125 352.485, 126.463 353.948, 128.250 355.563 L 131.500 358.500 128.563 355.250 C 125.825 352.221, 125 351.540, 125 352.313 M 127 378.500 C 128.866 380.425, 130.617 382, 130.892 382 C 131.167 382, 129.866 380.425, 128 378.500 C 126.134 376.575, 124.383 375, 124.108 375 C 123.833 375, 125.134 376.575, 127 378.500 M 126.500 387 C 129.209 389.750, 131.650 392, 131.925 392 C 132.200 392, 130.209 389.750, 127.500 387 C 124.791 384.250, 122.350 382, 122.075 382 C 121.800 382, 123.791 384.250, 126.500 387 M 361.946 391.750 L 358.500 395.500 362.250 392.054 C 364.313 390.158, 366 388.471, 366 388.304 C 366 387.540, 365.154 388.260, 361.946 391.750 M 328.272 413 C 328.272 415.475, 328.467 416.488, 328.706 415.250 C 328.944 414.012, 328.944 411.988, 328.706 410.750 C 328.467 409.512, 328.272 410.525, 328.272 413 M 160.252 414.500 C 160.263 416.700, 160.468 417.482, 160.707 416.238 C 160.946 414.994, 160.937 413.194, 160.687 412.238 C 160.437 411.282, 160.241 412.300, 160.252 414.500 M 165.232 414 C 165.232 415.925, 165.438 416.712, 165.689 415.750 C 165.941 414.788, 165.941 413.212, 165.689 412.250 C 165.438 411.288, 165.232 412.075, 165.232 414 M 125.500 444.026 C 124.165 444.617, 124.995 444.714, 128 444.317 C 130.475 443.989, 132.688 443.559, 132.917 443.361 C 133.785 442.609, 127.410 443.180, 125.500 444.026 M 367.250 444.689 C 368.212 444.941, 369.788 444.941, 370.750 444.689 C 371.712 444.438, 370.925 444.232, 369 444.232 C 367.075 444.232, 366.288 444.438, 367.250 444.689" stroke="none" fill="#92928f" fill-rule="evenodd"/><path d="M 233.500 214 C 231.919 215.650, 231.060 217, 231.591 217 C 232.526 217, 234.849 214.671, 236.372 212.207 C 237.640 210.155, 236.504 210.865, 233.500 214 M 223.820 222.962 C 220.147 226.388, 219.042 227.936, 220.250 227.962 C 221.213 227.983, 222 227.573, 222 227.052 C 222 225.742, 226.500 221, 227.742 221 C 228.299 221, 229.315 220.325, 230 219.500 C 232.872 216.039, 228.791 218.325, 223.820 222.962 M 354.234 285.750 C 354.482 287.813, 354.335 290.746, 353.907 292.269 C 353.479 293.792, 353.516 294.799, 353.989 294.507 C 354.462 294.215, 355.069 294.769, 355.338 295.738 C 355.608 296.707, 355.801 294.012, 355.768 289.750 C 355.735 285.488, 355.274 282, 354.745 282 C 354.215 282, 353.985 283.688, 354.234 285.750 M 259.161 288.394 C 259.210 290.810, 258.899 293.355, 258.470 294.048 C 257.983 294.836, 258.096 295.059, 258.770 294.642 C 259.363 294.276, 260.055 294.769, 260.308 295.738 C 260.561 296.707, 260.820 294.462, 260.884 290.750 C 260.948 287.007, 260.571 284, 260.036 284 C 259.507 284, 259.113 285.977, 259.161 288.394 M 245.232 292 C 245.232 293.925, 245.438 294.712, 245.689 293.750 C 245.941 292.788, 245.941 291.212, 245.689 290.250 C 245.438 289.288, 245.232 290.075, 245.232 292 M 306.310 294.500 C 306.315 297.800, 306.502 299.029, 306.725 297.232 C 306.947 295.435, 306.943 292.735, 306.715 291.232 C 306.486 289.729, 306.304 291.200, 306.310 294.500 M 150.762 291.707 C 152.006 291.946, 153.806 291.937, 154.762 291.687 C 155.718 291.437, 154.700 291.241, 152.500 291.252 C 150.300 291.263, 149.518 291.468, 150.762 291.707 M 424.322 293.507 C 422.367 294.936, 422.896 295.143, 437 298.447 C 445.184 300.365, 445 300.374, 445 298.068 C 445 296.165, 443.590 295.713, 427.796 292.552 C 426.860 292.365, 425.296 292.794, 424.322 293.507 M 60.250 294.031 C 59.013 294.529, 58 294.670, 58 294.345 C 58 294.021, 57.325 294.315, 56.500 295 C 55.675 295.685, 55 295.988, 55 295.674 C 55 295.361, 53.650 295.575, 52 296.150 C 48.966 297.208, 48.223 298.402, 49.939 299.462 C 51.052 300.150, 65.084 297.374, 68.605 295.770 C 73.411 293.580, 65.479 291.929, 60.250 294.031 M 211 293.892 C 211 294.566, 210.643 294.898, 210.208 294.628 C 209.772 294.359, 209.345 295.075, 209.258 296.219 C 209.105 298.257, 209.133 298.255, 210.653 296.085 C 211.506 294.867, 211.933 293.600, 211.602 293.269 C 211.271 292.938, 211 293.218, 211 293.892" stroke="none" fill="#b8e0c1" fill-rule="evenodd"/><path d="M 236.761 180.779 C 233.867 183.407, 230.351 186.670, 228.946 188.029 C 227.541 189.388, 222.253 194.461, 217.196 199.301 C 212.138 204.142, 208 208.559, 208 209.117 C 208 211.941, 210.234 213.999, 213.285 213.988 C 216.060 213.978, 218.292 212.202, 229.610 200.996 L 242.720 188.015 253.786 198.388 C 259.873 204.093, 266.498 210.358, 268.507 212.310 L 272.162 215.859 267.831 219.634 C 257.615 228.538, 243 243.744, 243 245.469 C 243 247.305, 245.516 249.943, 265.681 269.252 C 275.894 279.030, 278.949 280.651, 281.800 277.800 C 284.290 275.310, 283.144 271.457, 278.750 267.538 C 272.036 261.551, 256.533 246.617, 256.173 245.788 C 255.841 245.027, 257.063 243.785, 274.352 227.302 C 281.568 220.423, 284 217.469, 284 215.582 C 284 213.087, 281.068 210.033, 252.924 183.218 C 248.758 179.248, 244.600 176, 243.685 176 C 242.770 176, 239.654 178.151, 236.761 180.779 M 235 214 C 233.735 215.650, 232.093 217, 231.350 217 C 230.608 217, 230.113 217.492, 230.250 218.093 C 230.387 218.694, 229.603 219.707, 228.507 220.343 C 225.865 221.877, 222 225.861, 222 227.052 C 222 227.573, 221.335 228, 220.522 228 C 218.179 228, 205 241.391, 205 243.771 C 205 246.183, 207.479 249, 209.601 249 C 211.806 249, 245 217.015, 245 214.890 C 245 212.885, 242.197 211, 239.215 211 C 238.161 211, 236.265 212.350, 235 214 M 147.171 291 C 147.217 295.950, 147.648 300, 148.128 300 C 148.607 300, 149 298.425, 149 296.500 C 149 293.420, 149.304 293, 151.535 293 C 152.930 293, 155.270 293.786, 156.737 294.747 C 159.307 296.431, 159.378 296.427, 158.685 294.620 C 158.212 293.389, 158.528 292.334, 159.608 291.545 C 161.549 290.125, 161.770 285.632, 160.003 283.503 C 159.153 282.480, 156.892 282, 152.921 282 L 147.086 282 147.171 291 M 198.500 283.635 C 196.561 285.159, 196.577 285.182, 199 284.405 C 205.394 282.354, 210 285.049, 210 290.841 C 210 293.030, 209.217 295.205, 207.938 296.566 C 206.185 298.432, 205.322 298.637, 202.188 297.930 C 196.473 296.642, 192.896 290.504, 196.033 287.367 C 196.744 286.656, 196.589 286.333, 195.533 286.333 C 194.396 286.333, 194 287.431, 194 290.578 C 194 294.090, 194.531 295.269, 197.077 297.411 C 200.386 300.196, 204.673 300.765, 207.163 298.750 C 209.906 296.530, 212 292.626, 212 289.732 C 212 283.552, 203.495 279.710, 198.500 283.635 M 244 291 C 244 295.950, 244.420 300, 244.932 300 C 245.445 300, 245.667 298.087, 245.425 295.750 C 245.183 293.413, 245.258 290.225, 245.590 288.667 L 246.195 285.835 248.598 288.092 C 249.919 289.333, 251.045 289.933, 251.100 289.424 C 251.155 288.916, 251.532 289.625, 251.938 291 C 252.345 292.375, 253.233 293.376, 253.913 293.225 C 254.593 293.074, 254.906 293.343, 254.610 293.822 C 254.314 294.302, 255.310 295.881, 256.824 297.331 L 259.577 299.969 259.802 297.010 C 259.971 294.795, 259.667 294.191, 258.591 294.604 C 257.756 294.924, 256.681 294.272, 256.027 293.050 C 255.407 291.891, 254.403 291.251, 253.795 291.627 C 253.188 292.002, 252.967 291.862, 253.305 291.315 C 253.863 290.412, 245.997 282, 244.595 282 C 244.268 282, 244 286.050, 244 291 M 293.355 290.500 C 293.352 295.450, 293.521 297.601, 293.731 295.280 C 293.940 292.959, 293.943 288.909, 293.736 286.280 C 293.530 283.651, 293.358 285.550, 293.355 290.500 M 306.707 284.250 C 306.426 285.488, 306.538 289.650, 306.956 293.500 L 307.716 300.500 307.858 291.250 C 308 282.012, 307.669 280.004, 306.707 284.250 M 339 291 C 339 296.333, 339.407 300, 340 300 C 340.570 300, 341 297.039, 341 293.118 L 341 286.237 347.983 293.368 L 354.966 300.500 354.983 297.281 C 354.995 295.035, 354.604 294.215, 353.691 294.565 C 352.961 294.845, 349.608 292.179, 346.108 288.534 C 342.657 284.940, 339.646 282, 339.417 282 C 339.188 282, 339 286.050, 339 291 M 149 287.519 C 149 292.407, 149.771 292.796, 156.709 291.408 C 159.232 290.904, 159.642 290.387, 159.494 287.902 C 159.278 284.273, 159.460 284.407, 153.750 283.660 L 149 283.038 149 287.519" stroke="none" fill="#f9fcfe" fill-rule="evenodd"/><path d="M 224.943 57.390 C 224.669 57.664, 220.460 58.384, 215.589 58.989 C 206.410 60.130, 187.997 64.465, 184.500 66.309 C 183.400 66.889, 181.421 67.483, 180.102 67.629 C 175.507 68.139, 176.136 69.500, 180.967 69.500 C 183.643 69.500, 186.171 69.162, 186.583 68.750 C 187.700 67.633, 190.781 67.843, 191.188 69.064 C 191.429 69.788, 193.769 69.641, 198.521 68.601 C 219.341 64.045, 224.360 63.500, 245.500 63.500 C 266.023 63.500, 272.583 64.123, 290 67.725 C 302.628 70.336, 320.843 76.810, 334.500 83.541 C 341.650 87.065, 347.837 89.960, 348.250 89.974 C 348.663 89.988, 349.868 90.787, 350.928 91.750 C 354.193 94.713, 355.889 96, 356.529 96 C 356.866 96, 360.035 98.064, 363.571 100.588 C 368.184 103.880, 370 104.727, 370 103.588 C 370 102.714, 370.675 102, 371.500 102 C 372.325 102, 373 102.675, 373 103.500 C 373 104.325, 372.438 105.004, 371.750 105.008 C 370.473 105.017, 378.887 113.872, 380.250 113.955 C 382.064 114.064, 380.720 112.067, 377.507 109.879 C 373.769 107.333, 373.079 106, 375.500 106 C 376.325 106, 377 106.464, 377 107.031 C 377 107.599, 377.788 108.353, 378.750 108.707 C 379.712 109.061, 381.488 110.394, 382.695 111.668 C 384.025 113.071, 385.144 113.575, 385.533 112.946 C 386.648 111.142, 372.178 99.208, 356.783 89.235 C 331.877 73.100, 303.569 62.695, 274 58.806 C 265.856 57.735, 225.756 56.577, 224.943 57.390 M 239.657 60.750 C 239.404 61.163, 240.540 61.550, 242.182 61.611 C 244.164 61.684, 244.719 61.437, 243.834 60.876 C 242.170 59.821, 240.263 59.764, 239.657 60.750 M 312 70.500 C 312 71.325, 312.450 72, 313 72 C 313.550 72, 314 71.325, 314 70.500 C 314 69.675, 313.550 69, 313 69 C 312.450 69, 312 69.675, 312 70.500 M 168 72.059 C 167.175 72.577, 165.165 73.477, 163.534 74.058 C 161.279 74.862, 160.904 75.323, 161.972 75.982 C 162.891 76.551, 164.219 76.186, 165.822 74.925 C 167.168 73.866, 168.857 73, 169.576 73 C 170.294 73, 171.160 72.550, 171.500 72 C 172.269 70.756, 170.016 70.794, 168 72.059 M 178.500 73.504 L 175.500 74.918 178.500 74.324 C 180.150 73.997, 182.175 73.355, 183 72.895 C 185.693 71.397, 181.875 71.913, 178.500 73.504 M 327.998 77.376 C 329.373 78.179, 330.685 78.648, 330.915 78.418 C 331.536 77.797, 330.785 77.324, 328 76.583 L 325.500 75.917 327.998 77.376 M 167 78 C 167 78.550, 166.127 79, 165.059 79 C 163.991 79, 162.840 79.450, 162.500 80 C 161.597 81.462, 163.670 81.222, 167.050 79.474 C 170.313 77.787, 170.774 77, 168.500 77 C 167.675 77, 167 77.450, 167 78 M 149.946 80.687 C 137.494 86.829, 118.347 100.722, 109.500 110.034 C 105.721 114.012, 106.152 114.091, 111.872 110.469 C 113.634 109.353, 117.775 105.746, 124.339 99.609 C 128.380 95.831, 139.607 88.184, 149.222 82.661 C 152.568 80.739, 154.691 80.135, 156.504 80.590 C 158.899 81.192, 158.949 81.323, 157.282 82.633 C 155.710 83.867, 155.821 83.895, 158.219 82.870 C 160.965 81.696, 161.097 80, 158.441 80 C 157.648 80, 157 79.550, 157 79 C 157 77.489, 155.892 77.754, 149.946 80.687 M 333 79.500 C 333 80.325, 333.450 81, 334 81 C 334.550 81, 335 80.325, 335 79.500 C 335 78.675, 334.550 78, 334 78 C 333.450 78, 333 78.675, 333 79.500 M 340 83.383 C 340 84.153, 341.233 85.093, 342.740 85.471 C 344.247 85.849, 345.709 86.460, 345.990 86.829 C 346.270 87.198, 347.235 87.950, 348.134 88.500 C 349.032 89.050, 352.314 91.244, 355.426 93.375 C 358.537 95.506, 361.371 96.962, 361.722 96.611 C 362.650 95.684, 355.130 89.071, 352.356 88.374 C 351.060 88.049, 350 87.437, 350 87.013 C 350 86.589, 348.538 85.701, 346.750 85.038 C 344.962 84.375, 342.712 83.417, 341.750 82.908 C 340.476 82.235, 340 82.364, 340 83.383 M 135.742 94.914 C 131.211 97.819, 131.215 98.390, 135.750 96.103 C 138.088 94.924, 140 93.743, 140 93.480 C 140 92.623, 138.557 93.109, 135.742 94.914 M 364 97.752 C 364 98.817, 367.755 102, 369.011 102 C 371.046 102, 369.895 99.997, 367 98.500 C 365.350 97.647, 364 97.310, 364 97.752 M 125.981 101.129 C 123.605 102.850, 118.944 106.900, 115.624 110.129 C 112.303 113.358, 109.256 116, 108.852 116 C 108.448 116, 107.840 116.450, 107.500 117 C 105.888 119.609, 109.981 117.516, 114 113.678 C 116.475 111.314, 120.975 107.444, 124 105.079 C 128.793 101.331, 131.945 98, 130.700 98 C 130.480 98, 128.356 99.408, 125.981 101.129 M 387.638 115.500 C 388.345 117.340, 385.940 117.509, 384.075 115.750 C 383.006 114.741, 382.838 114.789, 383.208 116 C 383.859 118.130, 388.390 117.928, 388.810 115.750 C 388.995 114.787, 388.678 114, 388.105 114 C 387.532 114, 387.322 114.675, 387.638 115.500 M 106.008 131.250 C 102.578 134.688, 97.238 140.875, 94.141 145 C 91.044 149.125, 88.244 152.725, 87.919 153 C 85.214 155.288, 71.407 180.770, 68.684 188.500 C 67.910 190.700, 66.147 195.650, 64.768 199.500 C 61.158 209.575, 58.878 220.068, 56.511 237.500 L 55.832 242.500 57.955 240.250 C 60.150 237.924, 62 237.315, 62 238.918 C 62 241.068, 60.670 243.006, 59.143 243.079 C 58.054 243.131, 57.933 243.332, 58.784 243.673 C 61.382 244.717, 63 241.882, 63 236.285 C 63 222.628, 70.702 196.362, 80.147 177.809 C 89.242 159.943, 97.377 148.338, 109.549 135.864 C 113.647 131.665, 117 127.776, 117 127.221 C 117 126.263, 114.748 125, 113.040 125 C 112.602 125, 109.438 127.813, 106.008 131.250 M 379.648 125.686 C 378.391 126.943, 379.020 128.206, 380.601 127.600 C 382.424 126.900, 386.956 130.693, 386.983 132.941 C 386.995 133.955, 386.579 133.807, 385.582 132.443 C 384.802 131.376, 383.904 130.763, 383.586 131.081 C 383.268 131.399, 384.131 132.714, 385.504 134.004 C 386.877 135.293, 388 135.820, 388 135.174 C 388 134.528, 388.711 134, 389.579 134 C 390.814 134, 391.015 134.655, 390.500 137 C 389.977 139.381, 390.179 140, 391.480 140 C 392.381 140, 392.840 139.550, 392.500 139 C 392.160 138.450, 392.389 138, 393.008 138 C 393.677 138, 393.879 138.807, 393.505 139.985 C 393.086 141.305, 393.772 143.146, 395.556 145.485 C 398.411 149.228, 400.355 150.145, 399.299 147.250 C 398.699 145.605, 398.776 145.601, 400.580 147.183 C 401.636 148.109, 403.335 150.359, 404.356 152.183 L 406.212 155.500 403.642 152.500 C 400.289 148.586, 400.190 151.249, 403.526 155.622 C 408.592 162.265, 420.333 184.826, 424.019 195 C 425.314 198.575, 426.699 201.726, 427.097 202.003 C 427.821 202.507, 428.443 205.139, 431.589 221 C 432.516 225.675, 433.638 229.642, 434.083 229.815 C 434.527 229.988, 434.629 232.337, 434.310 235.034 C 433.555 241.404, 435.880 245.670, 439.152 243.919 C 441.021 242.918, 441.169 242.214, 440.590 237.097 C 438.398 217.714, 431.121 193.852, 421.973 176.042 C 416.837 166.045, 406.893 150.358, 401.996 144.529 C 392.126 132.782, 381.506 123.827, 379.648 125.686 M 113.071 127.415 C 111.489 129.320, 111.963 130.259, 113.901 129.061 C 114.639 128.605, 115.060 127.680, 114.835 127.006 C 114.545 126.134, 114.035 126.252, 113.071 127.415 M 106.667 134.167 C 105.658 135.267, 105.019 136.352, 105.246 136.579 C 105.473 136.806, 106.714 135.869, 108.004 134.496 C 109.293 133.123, 109.933 132.037, 109.424 132.083 C 108.916 132.129, 107.675 133.067, 106.667 134.167 M 395 141.878 C 395 142.360, 395.675 143.315, 396.500 144 C 398.128 145.351, 398.332 145.028, 397.393 142.582 C 396.750 140.907, 395 140.392, 395 141.878 M 436 242 C 436 242.550, 436.675 243, 437.500 243 C 438.325 243, 439 242.550, 439 242 C 439 241.450, 438.325 241, 437.500 241 C 436.675 241, 436 241.450, 436 242 M 80 320 C 80.825 320.533, 82.711 320.976, 84.191 320.985 C 85.671 320.993, 87.160 321.450, 87.500 322 C 87.840 322.550, 88.800 323, 89.634 323 C 91.290 323, 102 331, 102 332.237 C 102 332.657, 102.675 333, 103.500 333 C 104.325 333, 105.008 333.563, 105.017 334.250 C 105.038 335.774, 109.355 340, 110.891 340 C 111.501 340, 112 340.675, 112 341.500 C 112 342.325, 112.461 343, 113.025 343 C 113.588 343, 114.478 344.128, 115.003 345.507 C 115.527 346.886, 116.518 347.899, 117.204 347.757 C 117.891 347.616, 118.607 348.512, 118.796 349.750 C 118.985 350.988, 119.783 352, 120.570 352 C 121.356 352, 121.891 352.337, 121.758 352.750 C 121.375 353.934, 124.605 358.061, 125.340 357.327 C 125.703 356.964, 126 357.475, 126 358.462 C 126 359.450, 127.463 361.929, 129.250 363.971 C 131.037 366.014, 134.975 370.722, 138 374.435 C 141.025 378.147, 144.738 382.509, 146.250 384.127 C 147.763 385.745, 149.015 387.391, 149.033 387.784 C 149.094 389.085, 152.799 393, 153.969 393 C 154.601 393, 154.840 393.450, 154.500 394 C 154.160 394.550, 154.211 395.533, 154.613 396.184 C 155.119 397.002, 155.607 396.770, 156.193 395.434 C 156.937 393.737, 156.989 393.776, 156.613 395.755 C 156.175 398.062, 160.129 407.538, 161.117 406.549 C 161.418 406.249, 161.494 408.589, 161.287 411.751 C 160.926 417.246, 160.976 417.390, 162.419 415 L 163.929 412.500 163.965 415.691 C 164.001 419.007, 162.547 420.945, 161.664 418.756 C 161.367 418.019, 161.125 418.245, 161.079 419.305 C 160.905 423.292, 156.614 430.735, 152.187 434.729 C 149.609 437.056, 147.848 438.968, 148.272 438.979 C 150.191 439.031, 158.518 430.039, 160.505 425.770 C 161.716 423.168, 162.969 421.302, 163.289 421.622 C 164.323 422.656, 165.269 414.979, 164.657 410.516 C 163.935 405.244, 160.021 396.869, 158.670 397.704 C 158.132 398.037, 157.991 397.824, 158.357 397.231 C 159.432 395.492, 143.325 374.005, 128.500 357.401 C 127.950 356.785, 126.037 354.655, 124.250 352.667 C 122.463 350.679, 121 348.861, 121 348.627 C 121 346.827, 96.630 323.097, 93.652 321.997 C 91.919 321.357, 89.719 320.421, 88.764 319.917 C 86.323 318.628, 78 318.707, 80 320 M 400.924 321.477 C 393.664 325.260, 382.596 336.836, 351.650 373.014 C 343.902 382.072, 335.762 394.175, 332.161 401.992 C 329.072 408.699, 328.647 419.537, 331.394 421.546 C 332.296 422.206, 332.815 423.366, 332.546 424.123 C 331.981 425.712, 334.655 429.678, 335.632 428.701 C 335.991 428.342, 335.658 427.293, 334.893 426.370 C 333.915 425.193, 333.501 421.831, 333.503 415.096 C 333.505 406.909, 333.856 404.839, 335.892 401 C 338.904 395.320, 351.366 379.171, 362.193 366.916 C 366.769 361.737, 374.999 352.325, 380.483 346 C 397.939 325.867, 404.124 321, 412.255 321 C 415.242 321, 416.880 320.614, 416.500 320 C 415.308 318.072, 405.714 318.981, 400.924 321.477 M 83.486 340.023 C 82.805 341.125, 84.692 345, 85.910 345 C 86.372 345, 86.750 343.902, 86.750 342.559 C 86.750 340.063, 84.528 338.337, 83.486 340.023 M 396.763 349.364 C 390.545 355.106, 380.925 364.685, 375.385 370.652 C 369.845 376.618, 363.843 383.075, 362.046 385 C 356.549 390.889, 347.047 403.010, 345.312 406.345 C 344.240 408.406, 343.705 411.754, 343.769 416 C 343.841 420.767, 343.615 421.967, 342.923 420.500 C 342.234 419.041, 342.139 419.571, 342.573 422.457 C 342.901 424.634, 344.337 428.040, 345.765 430.027 C 349.001 434.528, 355.449 439.253, 357.753 438.809 C 358.965 438.576, 358.095 437.660, 354.856 435.762 C 348.285 431.911, 345.631 427.122, 345.565 419 C 345.481 408.470, 348.715 404.164, 381.670 370.934 C 397.252 355.223, 410 341.862, 410 341.243 C 410 338.052, 407.062 339.855, 396.763 349.364 M 73 344.500 C 73 345.875, 73.498 347, 74.107 347 C 74.730 347, 74.934 346.270, 74.573 345.330 C 74.220 344.409, 74.508 343.294, 75.216 342.845 C 76.160 342.246, 76.037 342.027, 74.750 342.015 C 73.546 342.005, 73 342.780, 73 344.500 M 88 343.417 C 88 344.288, 88.675 345, 89.500 345 C 90.325 345, 91 345.436, 91 345.969 C 91 346.501, 90.213 346.643, 89.250 346.284 C 87.979 345.810, 88.185 346.362, 90 348.298 C 91.375 349.765, 92.950 350.966, 93.500 350.967 C 94.050 350.968, 93.825 350.533, 93 350 C 91.737 349.184, 91.795 349.028, 93.367 349.015 C 94.743 349.004, 95.096 349.525, 94.711 350.999 C 94.423 352.098, 94.596 353.250, 95.094 353.558 C 95.592 353.866, 96 353.641, 96 353.059 C 96 352.477, 96.684 352, 97.519 352 C 98.628 352, 98.874 352.655, 98.428 354.430 C 97.894 356.558, 98.109 356.805, 100.159 356.419 C 101.447 356.176, 101.941 356.244, 101.258 356.570 C 99.818 357.256, 101.370 361, 103.094 361 C 103.657 361, 103.840 360.550, 103.500 360 C 103.160 359.450, 103.632 359, 104.548 359 C 105.618 359, 106.008 359.537, 105.638 360.500 C 104.941 362.317, 105.852 365, 107.166 365 C 107.690 365, 107.840 364.550, 107.500 364 C 107.160 363.450, 107.359 363, 107.941 363 C 108.523 363, 109.014 364.012, 109.031 365.250 C 109.049 366.488, 110.174 368.309, 111.531 369.297 C 112.918 370.306, 114 370.609, 114 369.988 C 114 369.380, 114.457 369.165, 115.016 369.510 C 115.575 369.856, 115.815 370.491, 115.548 370.922 C 115.282 371.353, 115.710 372.559, 116.500 373.603 C 117.324 374.690, 117.950 374.967, 117.968 374.250 C 117.986 373.563, 118.480 373, 119.067 373 C 119.654 373, 119.898 373.788, 119.608 374.750 C 118.992 376.798, 124.087 383.239, 124.750 381.250 C 124.979 380.562, 125.609 380, 126.151 380 C 126.692 380, 126.848 380.903, 126.498 382.007 C 125.752 384.358, 131.455 390.936, 132.339 388.745 C 132.616 388.060, 132.890 388.400, 132.948 389.500 C 133.006 390.600, 135.077 393.750, 137.549 396.500 C 143.096 402.670, 149 414.099, 149 418.666 C 149 426.194, 144.008 433.355, 136.060 437.227 C 133.134 438.653, 132.100 439.569, 133.175 439.783 C 137.377 440.622, 148.690 431.575, 150.985 425.540 C 152.338 421.980, 152.271 415.093, 150.841 410.899 C 147.748 401.823, 133.906 385.819, 101.719 354.107 C 95.240 347.723, 89.502 342.350, 88.969 342.167 C 88.436 341.983, 88 342.546, 88 343.417 M 417.277 343.250 C 416.744 343.938, 414.366 348.100, 411.992 352.500 C 409.618 356.900, 405.337 364.550, 402.478 369.500 C 392.959 385.981, 391.130 389.783, 391.691 391.926 C 391.994 393.084, 391.754 394, 391.148 394 C 390.547 394, 390.337 393.220, 390.679 392.250 C 391.165 390.867, 391.026 390.748, 390.014 391.683 C 388.674 392.921, 389.273 396, 390.854 396 C 392.312 396, 396.887 388.182, 413.964 356.500 C 415.742 353.200, 418.085 349.046, 419.169 347.268 C 421.009 344.252, 420.964 342, 419.063 342 C 418.613 342, 417.809 342.563, 417.277 343.250 M 76.411 345.420 C 76.772 346.476, 76.585 347.638, 75.995 348.003 C 74.519 348.915, 75.125 350.199, 88.224 373.907 C 98.865 393.164, 101.894 397.440, 103.651 395.683 C 104.375 394.958, 100.592 386.822, 95.588 378.342 C 94.238 376.055, 89.883 368.180, 85.910 360.842 C 78.442 347.050, 75.127 341.666, 76.411 345.420 M 110.229 366.187 C 110.727 367.682, 113 368.505, 113 367.190 C 113 366.653, 112.287 365.941, 111.416 365.606 C 110.443 365.233, 109.985 365.456, 110.229 366.187 M 432.775 377.750 C 430.355 382.012, 426.746 388.650, 424.753 392.500 C 422.761 396.350, 420.122 401.332, 418.890 403.571 C 417.475 406.141, 416.912 408.328, 417.363 409.504 C 418.056 411.310, 418.134 411.307, 419.913 409.433 C 420.922 408.370, 424.111 403, 426.999 397.500 C 429.887 392, 434.038 384.229, 436.225 380.232 C 439.870 373.569, 440.530 370, 438.119 370 C 437.600 370, 435.195 373.488, 432.775 377.750 M 53.579 371.872 C 53.282 372.352, 57.271 380.565, 62.443 390.122 C 69.149 402.517, 72.298 407.416, 73.423 407.206 C 74.290 407.045, 75 407.382, 75 407.956 C 75 408.530, 74.460 409, 73.800 409 C 72.867 409, 72.867 409.267, 73.800 410.200 C 75.645 412.045, 77.816 409.540, 76.379 407.225 C 75.389 405.631, 66.071 388.602, 59.430 376.250 C 56.778 371.319, 54.825 369.857, 53.579 371.872 M 419.314 405.750 C 418.972 406.712, 418.503 407.950, 418.272 408.500 C 418.041 409.050, 418.560 408.626, 419.426 407.559 C 420.998 405.620, 421.473 404, 420.469 404 C 420.176 404, 419.657 404.788, 419.314 405.750" stroke="none" fill="#15fdff" fill-rule="evenodd"/><path d="M 236.437 180.250 L 233.500 183.500 236.750 180.563 C 239.779 177.825, 240.460 177, 239.687 177 C 239.515 177, 238.052 178.463, 236.437 180.250 M 220.437 195.250 L 217.500 198.500 220.750 195.563 C 222.537 193.948, 224 192.485, 224 192.313 C 224 191.540, 223.175 192.221, 220.437 195.250 M 232.946 197.750 L 229.500 201.500 233.250 198.054 C 236.740 194.846, 237.460 194, 236.696 194 C 236.529 194, 234.842 195.688, 232.946 197.750 M 272.500 202 C 275.766 205.300, 278.662 208, 278.937 208 C 279.212 208, 276.766 205.300, 273.500 202 C 270.234 198.700, 267.338 196, 267.063 196 C 266.788 196, 269.234 198.700, 272.500 202 M 225.453 235.250 L 221.500 239.500 225.750 235.547 C 228.088 233.373, 230 231.460, 230 231.297 C 230 230.540, 229.129 231.298, 225.453 235.250 M 250 235.500 C 247.571 237.975, 245.809 240, 246.084 240 C 246.359 240, 248.571 237.975, 251 235.500 C 253.429 233.025, 255.191 231, 254.916 231 C 254.641 231, 252.429 233.025, 250 235.500 M 257.833 288.517 C 257.644 292.138, 257.877 294.530, 258.369 294.035 C 258.847 293.555, 259.211 291.223, 259.179 288.853 C 259.146 286.483, 259.580 284.260, 260.143 283.911 C 260.762 283.529, 260.573 283.050, 259.666 282.702 C 258.447 282.234, 258.103 283.326, 257.833 288.517 M 292.360 291 C 292.360 296.225, 292.529 298.363, 292.735 295.750 C 292.941 293.137, 292.941 288.863, 292.735 286.250 C 292.529 283.637, 292.360 285.775, 292.360 291 M 294.360 291 C 294.360 296.225, 294.529 298.363, 294.735 295.750 C 294.941 293.137, 294.941 288.863, 294.735 286.250 C 294.529 283.637, 294.360 285.775, 294.360 291 M 338.360 291 C 338.360 296.225, 338.529 298.363, 338.735 295.750 C 338.941 293.137, 338.941 288.863, 338.735 286.250 C 338.529 283.637, 338.360 285.775, 338.360 291 M 352.914 288.158 C 352.686 291.819, 352.784 294.639, 353.131 294.422 C 354.274 293.710, 354.714 289.170, 354.015 285.303 C 353.393 281.863, 353.288 282.136, 352.914 288.158 M 246 291 C 246 293.200, 246.178 295, 246.395 295 C 246.612 295, 246.962 293.200, 247.171 291 C 247.381 288.800, 247.203 287, 246.776 287 C 246.349 287, 246 288.800, 246 291 M 67.500 293 C 70.252 294.183, 71.231 294.183, 70.500 293 C 70.160 292.450, 68.896 292.032, 67.691 292.070 C 65.579 292.138, 65.572 292.171, 67.500 293 M 350 296.500 C 351.866 298.425, 353.617 300, 353.892 300 C 354.167 300, 352.866 298.425, 351 296.500 C 349.134 294.575, 347.383 293, 347.108 293 C 346.833 293, 348.134 294.575, 350 296.500" stroke="none" fill="#c0c4c3" fill-rule="evenodd"/><path d="M 0 250.002 L 0 500.004 250.250 499.752 L 500.500 499.500 500.752 249.750 L 501.004 0 250.502 0 L 0 0 0 250.002 M 0.492 250.500 C 0.492 388, 0.608 444.101, 0.750 375.170 C 0.892 306.238, 0.892 193.738, 0.750 125.170 C 0.608 56.601, 0.492 113, 0.492 250.500 M 226.051 56.148 C 184.204 60.518, 144.443 77.497, 114.394 103.829 C 104.626 112.388, 103.434 114.075, 105.039 117.072 C 106.761 120.290, 109.425 119.292, 116.826 112.656 C 153.027 80.196, 205.401 62.027, 256 64.378 C 301.635 66.498, 341.690 82.815, 378.276 114.190 C 382.002 117.385, 385.458 120, 385.954 120 C 387.325 120, 390 117.033, 390 115.512 C 390 113.686, 376.642 101.504, 367.129 94.655 C 325.723 64.842, 275.104 51.026, 226.051 56.148 M 130.430 129.830 C 100.410 156.526, 83.342 186.788, 75.344 227.500 C 72.950 239.688, 72.954 269.396, 75.353 283.387 C 76.285 288.825, 76.782 294.113, 76.456 295.137 C 76.082 296.318, 76.353 297, 77.197 297 C 77.953 297, 79.606 300.111, 81.015 304.185 C 83.558 311.537, 84.472 312.618, 86.869 311.101 C 88.018 310.374, 87.979 309.451, 86.626 305.367 C 83.699 296.533, 81.124 282.694, 79.900 269.215 C 76.295 229.528, 87.553 190.498, 111.835 158.500 C 118.005 150.370, 131.234 136.764, 138.250 131.334 C 141.412 128.886, 144 126.099, 144 125.142 C 144 123.442, 142.219 121, 140.980 121 C 140.639 121, 135.892 124.974, 130.430 129.830 M 352.039 122.928 C 350.624 125.572, 351.409 127.078, 355.724 130 C 361.419 133.855, 379.012 151.704, 384.691 159.387 C 400.193 180.361, 410.164 203.554, 414.618 229 C 416.622 240.450, 416.876 265.886, 415.102 277.500 C 414.018 284.600, 409.112 304.939, 407.421 309.346 C 406.970 310.519, 407.326 310.999, 408.643 310.996 C 411.039 310.990, 417.544 298.305, 418.384 292 C 418.714 289.525, 419.711 283.675, 420.601 279 C 423.009 266.345, 422.792 241.691, 420.141 226.822 C 414.448 194.894, 399.147 164.388, 377.500 141.811 C 368.882 132.823, 355.537 121, 354.010 121 C 353.493 121, 352.606 121.867, 352.039 122.928 M 107.132 128.571 C 104.336 131.085, 99.261 136.598, 95.855 140.821 C 74.267 167.589, 59.843 200.146, 55.985 230.812 C 54.717 240.895, 55.101 244.441, 57.564 245.386 C 60.919 246.674, 62.771 244.294, 63.493 237.769 C 67.722 199.532, 84.445 163.399, 110.568 136.057 C 118.051 128.224, 119.329 125.724, 116.418 124.607 C 113.456 123.470, 112.218 123.999, 107.132 128.571 M 377.996 126.008 C 377.052 127.772, 378.186 129.340, 387.346 138.931 C 399.852 152.027, 408.094 164.042, 416.549 181.500 C 424.157 197.209, 429.311 213.696, 431.597 229.637 C 433.832 245.218, 436.089 248.874, 440.479 244.023 C 442.112 242.218, 442.167 241.260, 441.105 232.977 C 436.555 197.504, 418.801 159.882, 394.826 134.911 C 384.686 124.350, 380.163 121.958, 377.996 126.008 M 241.293 176.015 C 240.079 176.504, 233.128 182.663, 225.847 189.702 C 218.565 196.741, 211.571 203.492, 210.304 204.705 C 207.800 207.101, 207.226 211.826, 209.200 213.800 C 209.860 214.460, 211.773 214.984, 213.450 214.965 C 215.990 214.936, 218.729 212.757, 229.832 201.934 L 243.163 188.937 256.851 202.178 L 270.539 215.418 258.563 226.959 C 251.976 233.307, 245.555 239.492, 244.293 240.705 C 239.963 244.867, 240.942 246.467, 257.750 262.678 C 266.413 271.032, 274.548 278.443, 275.829 279.145 C 279.059 280.917, 283.375 278.516, 283.818 274.700 C 284.093 272.335, 282.263 270.150, 270.343 258.616 L 256.549 245.269 267.024 235.297 C 272.786 229.812, 279.188 223.855, 281.250 222.059 C 287.708 216.434, 287.036 214.833, 272.250 200.633 C 253.208 182.345, 245.169 174.993, 244.290 175.063 C 243.855 175.098, 242.507 175.527, 241.293 176.015 M 232.665 213.851 C 229.661 216.571, 226.334 219.630, 225.272 220.648 C 202.454 242.532, 202.545 242.413, 205.035 247.066 C 205.713 248.332, 207.129 249, 209.137 249 C 211.729 249, 214.739 246.581, 228.601 233.358 C 241.992 220.586, 245 217.215, 245 214.981 C 245 212.043, 243.782 210.637, 240.313 209.575 C 238.598 209.050, 236.947 209.973, 232.665 213.851 M 146.667 281.667 C 146.300 282.033, 146 286.308, 146 291.167 C 146 298.352, 146.280 300, 147.500 300 C 148.500 300, 149 299, 149 297 C 149 294.340, 149.337 294, 151.970 294 C 154.111 294, 155.560 294.838, 157.158 297 C 158.378 298.650, 160.222 300, 161.256 300 C 163.053 300, 163.045 299.872, 161.068 297.096 C 158.610 293.644, 158.482 292.413, 160.500 291.638 C 162.934 290.704, 162.434 284.417, 159.777 282.557 C 157.556 281.001, 147.982 280.351, 146.667 281.667 M 198.357 281.992 C 191.057 284.938, 191.325 296.028, 198.782 299.567 C 201.688 300.946, 202.942 301.034, 206.108 300.086 C 210.835 298.670, 213 295.721, 213 290.701 C 213 283.410, 205.660 279.045, 198.357 281.992 M 243.667 281.667 C 243.300 282.033, 243 286.308, 243 291.167 C 243 299.333, 243.151 300, 245 300 C 246.783 300, 247 299.333, 247 293.859 L 247 287.718 252.789 293.859 C 255.974 297.237, 259.124 300, 259.789 300 C 260.652 300, 261 297.269, 261 290.500 C 261 282.722, 260.728 281, 259.500 281 C 258.322 281, 258 282.383, 258 287.448 L 258 293.897 251.800 287.448 C 245.536 280.934, 244.872 280.462, 243.667 281.667 M 292 290.417 C 292 298.372, 292.261 300, 293.538 300 C 294.830 300, 295.029 298.539, 294.788 290.831 C 294.592 284.599, 294.100 281.529, 293.250 281.248 C 292.308 280.935, 292 283.196, 292 290.417 M 306 290.500 C 306 298.278, 306.272 300, 307.500 300 C 308.728 300, 309 298.278, 309 290.500 C 309 282.722, 308.728 281, 307.500 281 C 306.272 281, 306 282.722, 306 290.500 M 338 290.393 C 338 297.820, 338.314 299.907, 339.500 300.362 C 340.741 300.838, 341 299.783, 341 294.245 L 341 287.554 347.775 294.277 C 351.501 297.975, 354.876 301, 355.275 301 C 355.674 301, 356 296.500, 356 291 C 356 282.778, 355.733 281, 354.500 281 C 353.317 281, 352.995 282.428, 352.975 287.750 L 352.950 294.500 346.601 287.750 C 343.110 284.038, 339.746 281, 339.127 281 C 338.371 281, 338 284.094, 338 290.393 M 149.384 285.442 C 147.769 289.650, 151.446 291.870, 156.750 289.890 C 159.341 288.922, 159.772 285.510, 157.418 284.607 C 154.528 283.498, 149.947 283.974, 149.384 285.442 M 198.455 286.455 C 197.105 287.805, 196 289.830, 196 290.955 C 196 296.442, 205.280 299.293, 208.443 294.777 C 210.637 291.645, 210.383 289.292, 207.545 286.455 C 204.431 283.340, 201.569 283.340, 198.455 286.455 M 57.014 294.163 C 52.897 295.253, 49.215 296.653, 48.830 297.274 C 46.908 300.385, 51.193 300.773, 62.110 298.477 C 69.995 296.818, 72.177 295.624, 71.334 293.427 C 70.599 291.512, 66.171 291.740, 57.014 294.163 M 423.323 293.601 C 422.547 295.623, 424.207 296.650, 430.500 298.039 C 439.216 299.962, 445.656 300.365, 446.476 299.039 C 447.665 297.115, 445.792 296.005, 437.885 293.952 C 428.693 291.565, 424.146 291.455, 423.323 293.601 M 102.837 301.927 C 99.506 302.995, 89.867 308.200, 90.341 308.675 C 90.535 308.868, 92.323 308.345, 94.314 307.513 C 102.152 304.238, 111.594 306.406, 121.602 313.777 C 129.782 319.801, 153.953 349.035, 165.432 366.786 C 174.935 381.482, 178.360 393.415, 176.297 404.647 C 175.705 407.866, 175.351 410.642, 175.510 410.816 C 176.323 411.706, 181.324 403.503, 182.116 399.979 C 183.279 394.803, 181.907 386.049, 178.680 378.060 C 173.006 364.012, 148.955 331.592, 131.739 314.783 C 120.655 303.961, 110.533 299.459, 102.837 301.927 M 379.396 302.374 C 373.387 304.320, 367.516 308.740, 358.446 318.147 C 337.570 339.800, 316.703 368.697, 312.764 381.407 C 309.007 393.533, 309.999 401.850, 316.053 409 L 318.170 411.500 317.513 409 C 317.152 407.625, 316.609 403.314, 316.307 399.421 C 315.701 391.599, 317.365 384.161, 321.579 375.843 C 328.434 362.317, 356.684 326.555, 369.082 315.709 C 379.520 306.578, 390.267 303.813, 399.477 307.887 C 406.109 310.821, 403.472 307.842, 396.529 304.557 C 389.793 301.370, 384.556 300.703, 379.396 302.374 M 78.952 318.459 C 76.503 319.094, 73.150 320.377, 71.500 321.310 L 68.500 323.006 71.500 322.310 C 76.834 321.071, 84.404 321.569, 88.225 323.410 C 95.424 326.878, 103.978 335.784, 131.052 368 C 154.359 395.734, 159.232 403.273, 159.820 412.510 C 160.321 420.386, 158.781 425.218, 153.894 431.094 C 149.223 436.713, 140.055 441.466, 131.118 442.904 C 122.001 444.372, 122.177 445.271, 131.500 444.853 C 137.843 444.569, 140.736 443.889, 145.468 441.568 C 156.450 436.180, 163.796 427.268, 165.455 417.321 C 166.302 412.242, 163.964 402.313, 160.558 396.525 C 149.696 378.067, 103.738 325.392, 94.355 320.648 C 88.999 317.939, 83.800 317.200, 78.952 318.459 M 401.065 320.056 C 395.684 322.497, 381.301 336.787, 363.940 356.941 C 357.098 364.884, 350.600 372.582, 349.500 374.048 C 348.400 375.514, 344.916 380.125, 341.758 384.293 C 338.599 388.462, 334.324 395.111, 332.258 399.069 C 328.919 405.462, 328.504 407.058, 328.539 413.382 C 328.588 422.326, 331.152 427.998, 338.074 434.472 C 345.768 441.670, 352.622 444.423, 363.500 444.687 L 372.500 444.905 364.619 443.526 C 345.913 440.255, 333.597 428.520, 333.733 414.098 C 333.837 403.015, 339.390 394.846, 373.778 355.187 C 392.680 333.387, 399.937 326.207, 405.960 323.349 C 409.453 321.691, 418.396 321.191, 423.129 322.388 C 424.433 322.718, 423.250 321.871, 420.500 320.507 C 414.276 317.418, 407.238 317.255, 401.065 320.056 M 83.250 338.662 C 82.563 338.940, 82 339.862, 82 340.713 C 82 341.563, 93.761 353.980, 108.135 368.306 C 137.076 397.149, 145.171 406.936, 147.056 415.360 C 148.177 420.370, 148.086 421.132, 145.760 426.213 C 143.155 431.904, 140.014 434.528, 132.750 437.083 C 129.100 438.367, 127.951 440.234, 130.022 441.514 C 131.854 442.646, 140.618 439.019, 144.894 435.359 C 150.495 430.564, 153.143 425.139, 153.143 418.456 C 153.143 407.047, 146.282 397.501, 115.602 366.224 C 95.831 346.068, 86.914 337.840, 85.100 338.079 C 84.770 338.122, 83.938 338.385, 83.250 338.662 M 387.116 357.450 C 368.104 376.455, 355.697 390.048, 348.100 400.201 C 341.563 408.937, 339.594 417.575, 342.177 426.195 C 344.464 433.830, 359.183 444.267, 363.670 441.436 C 366.220 439.828, 365.357 438.554, 360.666 437 C 354.259 434.878, 350.577 431.824, 347.995 426.491 C 344.842 419.975, 345.560 413.742, 350.286 406.625 C 355.240 399.163, 373.340 379.749, 394.434 359.272 C 404.195 349.797, 411.993 341.472, 411.764 340.772 C 411.534 340.072, 410.083 339.352, 408.539 339.171 C 406.070 338.881, 403.494 341.079, 387.116 357.450 M 72.739 341.126 C 71.783 341.661, 71 342.645, 71 343.313 C 71 344.534, 94.985 389.125, 98.398 394.250 C 100.422 397.289, 103.721 397.890, 104.679 395.394 C 105.265 393.867, 103.807 390.483, 98.693 381.500 C 97.441 379.300, 93.107 371.425, 89.062 364 C 75.541 339.182, 75.733 339.451, 72.739 341.126 M 412.142 349.941 C 409.314 354.915, 407 359.256, 407 359.588 C 407 359.920, 406.164 361.386, 405.143 362.846 C 404.122 364.306, 402.038 367.750, 400.513 370.500 C 398.988 373.250, 395.549 379.439, 392.870 384.252 C 390.192 389.066, 388 393.693, 388 394.534 C 388 396.966, 390.975 397.475, 393 395.389 C 395.884 392.417, 422.090 344.710, 421.768 343.017 C 421.610 342.183, 420.535 341.365, 419.381 341.199 C 417.673 340.954, 416.328 342.579, 412.142 349.941 M 53.750 370.080 C 52.788 370.641, 52 371.722, 52 372.483 C 52 373.680, 67.129 402.450, 71.061 408.731 C 72.925 411.710, 75.034 412.394, 76.826 410.603 C 78.484 408.944, 77.472 406.521, 68.011 389.500 C 65.260 384.550, 61.650 377.913, 59.990 374.750 C 56.802 368.678, 56.520 368.467, 53.750 370.080 M 436.216 370.250 C 434.808 371.959, 423 392.834, 423 393.613 C 423 393.957, 421.425 396.831, 419.500 400 C 414.957 407.479, 414.847 413.147, 419.278 411.447 C 420.908 410.821, 441 374.070, 441 371.714 C 441 370.889, 440.288 369.941, 439.418 369.607 C 437.350 368.813, 437.409 368.801, 436.216 370.250" stroke="none" fill="#050e0f" fill-rule="evenodd"/></svg>